<svg width="402" height="421" viewBox="0 0 402 421" fill="none" xmlns="http://www.w3.org/2000/svg">
<g opacity="0.8">
<path d="M40.2028 87.6421C43.2882 90.7576 43.2808 95.8207 40.1808 98.9509L16.7491 122.611C13.7862 125.602 8.99399 125.61 6.04519 122.632C3.09638 119.655 3.10332 114.816 6.06615 111.824L35.1087 82.4985L40.2028 87.6421Z" stroke="#FD5444"/>
<path d="M40.2028 129.185C43.2882 132.301 43.2808 137.364 40.1808 140.494L16.7491 164.154C13.7862 167.145 8.99399 167.153 6.04519 164.175C3.09638 161.198 3.10332 156.358 6.06615 153.367L35.1087 124.041L40.2028 129.185Z" stroke="#FD5444"/>
<path d="M40.2028 213.082C43.2882 216.198 43.2808 221.261 40.1808 224.391L16.7491 248.051C13.7862 251.043 8.99399 251.05 6.04519 248.072C3.09638 245.095 3.10332 240.256 6.06615 237.264L35.1087 207.939L40.2028 213.082Z" stroke="#FD5444"/>
<path d="M91.6305 178.283C94.7159 181.398 94.7085 186.462 91.6085 189.592L68.1768 213.252C65.214 216.243 60.4217 216.25 57.4729 213.273C54.5241 210.295 54.5311 205.456 57.4939 202.465L86.5364 173.139L91.6305 178.283Z" stroke="#FD5444"/>
<path d="M91.6305 5.8543C94.7159 8.96973 94.7085 14.0328 91.6085 17.163L68.1768 40.823C65.214 43.8147 60.4217 43.8217 57.4729 40.8442C54.5241 37.8667 54.5311 33.0277 57.4939 30.036L86.5364 0.7106L91.6305 5.8543Z" stroke="#FD5444"/>
<path d="M91.6305 46.586C94.7159 49.7014 94.7085 54.7645 91.6085 57.8947L68.1768 81.5547C65.214 84.5463 60.4217 84.5534 57.4729 81.5759C54.5241 78.5984 54.5311 73.7594 57.4939 70.7677L86.5364 41.4423L91.6305 46.586Z" stroke="#FD5444"/>
<path d="M91.6305 88.1289C94.7159 91.2444 94.7085 96.3075 91.6085 99.4377L68.1768 123.098C65.214 126.089 60.4217 126.096 57.4729 123.119C54.5241 120.141 54.5311 115.302 57.4939 112.311L86.5364 82.9852L91.6305 88.1289Z" stroke="#FD5444"/>
<path d="M91.6305 213.57C94.7159 216.685 94.7085 221.748 91.6085 224.878L68.1768 248.538C65.214 251.53 60.4217 251.537 57.4729 248.56C54.5241 245.582 54.5311 240.743 57.4939 237.751L86.5364 208.426L91.6305 213.57Z" stroke="#FD5444"/>
<path d="M91.6305 254.301C94.7159 257.417 94.7085 262.48 91.6085 265.61L68.1768 289.27C65.214 292.262 60.4217 292.269 57.4729 289.291C54.5241 286.314 54.5311 281.475 57.4939 278.483L86.5364 249.158L91.6305 254.301Z" stroke="#FD5444"/>
<path d="M91.6305 295.844C94.7159 298.959 94.7085 304.023 91.6085 307.153L68.1768 330.813C65.214 333.804 60.4217 333.811 57.4729 330.834C54.5241 327.856 54.5311 323.017 57.4939 320.026L86.5364 290.7L91.6305 295.844Z" stroke="#FD5444"/>
<path d="M143.058 178.283C146.144 181.398 146.136 186.462 143.036 189.592L119.605 213.252C116.642 216.243 111.849 216.25 108.901 213.273C105.952 210.295 105.959 205.456 108.922 202.465L137.964 173.139L143.058 178.283Z" stroke="#FD5444"/>
<path d="M143.058 46.586C146.144 49.7014 146.136 54.7645 143.036 57.8947L119.605 81.5547C116.642 84.5463 111.849 84.5534 108.901 81.5759C105.952 78.5984 105.959 73.7594 108.922 70.7677L137.964 41.4423L143.058 46.586Z" stroke="#FD5444"/>
<path d="M143.058 88.129C146.144 91.2444 146.136 96.3075 143.036 99.4377L119.605 123.098C116.642 126.089 111.849 126.096 108.901 123.119C105.952 120.141 105.959 115.302 108.922 112.311L137.964 82.9853L143.058 88.129Z" stroke="#FD5444"/>
<path d="M143.058 129.672C146.144 132.787 146.136 137.85 143.036 140.981L119.605 164.641C116.642 167.632 111.849 167.639 108.901 164.662C105.952 161.684 105.959 156.845 108.922 153.854L137.964 124.528L143.058 129.672Z" stroke="#FD5444"/>
<path d="M143.058 254.301C146.144 257.417 146.136 262.48 143.036 265.61L119.605 289.27C116.642 292.262 111.849 292.269 108.901 289.291C105.952 286.314 105.959 281.475 108.922 278.483L137.964 249.158L143.058 254.301Z" stroke="#FD5444"/>
<path d="M143.058 337.387C146.144 340.503 146.136 345.566 143.036 348.696L119.605 372.356C116.642 375.348 111.849 375.355 108.901 372.377C105.952 369.4 105.959 364.561 108.922 361.569L137.964 332.244L143.058 337.387Z" stroke="#FD5444"/>
<path d="M194.486 178.283C197.571 181.398 197.564 186.462 194.464 189.592L171.032 213.252C168.069 216.243 163.277 216.25 160.328 213.273C157.38 210.295 157.387 205.456 160.349 202.465L189.392 173.139L194.486 178.283Z" stroke="#FD5444"/>
<path d="M194.487 46.586C197.572 49.7014 197.565 54.7645 194.465 57.8947L171.033 81.5547C168.07 84.5463 163.278 84.5534 160.329 81.5759C157.381 78.5984 157.387 73.7594 160.35 70.7677L189.393 41.4423L194.487 46.586Z" stroke="#FD5444"/>
<path d="M194.487 88.129C197.572 91.2444 197.565 96.3075 194.465 99.4377L171.033 123.098C168.07 126.089 163.278 126.096 160.329 123.119C157.381 120.141 157.387 115.302 160.35 112.311L189.393 82.9853L194.487 88.129Z" stroke="#FD5444"/>
<path d="M194.487 213.57C197.572 216.685 197.565 221.748 194.465 224.878L171.033 248.538C168.07 251.53 163.278 251.537 160.329 248.56C157.381 245.582 157.387 240.743 160.35 237.751L189.393 208.426L194.487 213.57Z" stroke="#FD5444"/>
<path d="M194.487 254.301C197.572 257.417 197.565 262.48 194.465 265.61L171.033 289.27C168.07 292.262 163.278 292.269 160.329 289.291C157.381 286.314 157.387 281.475 160.35 278.483L189.393 249.158L194.487 254.301Z" stroke="#FD5444"/>
<path d="M194.487 295.844C197.572 298.959 197.565 304.023 194.465 307.153L171.033 330.813C168.07 333.804 163.278 333.811 160.329 330.834C157.381 327.856 157.387 323.017 160.35 320.026L189.393 290.7L194.487 295.844Z" stroke="#FD5444"/>
<path d="M240.771 178.283C243.857 181.398 243.849 186.462 240.749 189.592L217.317 213.252C214.355 216.243 209.562 216.25 206.614 213.273C203.665 210.295 203.672 205.456 206.635 202.465L235.677 173.139L240.771 178.283Z" stroke="#FD5444"/>
<path d="M240.772 88.129C243.857 91.2444 243.85 96.3075 240.75 99.4377L217.318 123.098C214.356 126.089 209.563 126.096 206.615 123.119C203.666 120.141 203.673 115.302 206.635 112.311L235.678 82.9853L240.772 88.129Z" stroke="#FD5444"/>
<path d="M240.772 129.672C243.857 132.787 243.85 137.85 240.75 140.981L217.318 164.641C214.356 167.632 209.563 167.639 206.615 164.662C203.666 161.684 203.673 156.845 206.635 153.854L235.678 124.528L240.772 129.672Z" stroke="#FD5444"/>
<path d="M240.772 213.57C243.857 216.685 243.85 221.748 240.75 224.878L217.318 248.538C214.356 251.53 209.563 251.537 206.615 248.56C203.666 245.582 203.673 240.743 206.635 237.751L235.678 208.426L240.772 213.57Z" stroke="#FD5444"/>
<path d="M240.772 254.301C243.857 257.417 243.85 262.48 240.75 265.61L217.318 289.27C214.356 292.262 209.563 292.269 206.615 289.291C203.666 286.314 203.673 281.475 206.635 278.483L235.678 249.158L240.772 254.301Z" stroke="#FD5444"/>
<path d="M240.772 295.844C243.857 298.959 243.85 304.023 240.75 307.153L217.318 330.813C214.356 333.804 209.563 333.811 206.615 330.834C203.666 327.856 203.673 323.017 206.635 320.026L235.678 290.7L240.772 295.844Z" stroke="#FD5444"/>
<path d="M240.772 337.387C243.857 340.503 243.85 345.566 240.75 348.696L217.318 372.356C214.356 375.348 209.563 375.355 206.615 372.377C203.666 369.4 203.673 364.561 206.635 361.569L235.678 332.244L240.772 337.387Z" stroke="#FD5444"/>
<path d="M292.2 178.283C295.285 181.398 295.278 186.462 292.178 189.592L268.746 213.252C265.783 216.243 260.991 216.25 258.042 213.273C255.093 210.295 255.1 205.456 258.063 202.465L287.106 173.139L292.2 178.283Z" stroke="#FD5444"/>
<path d="M292.2 88.129C295.285 91.2444 295.278 96.3075 292.178 99.4377L268.746 123.098C265.783 126.089 260.991 126.096 258.042 123.119C255.093 120.141 255.1 115.302 258.063 112.311L287.106 82.9853L292.2 88.129Z" stroke="#FD5444"/>
<path d="M292.2 129.672C295.285 132.787 295.278 137.85 292.178 140.981L268.746 164.641C265.783 167.632 260.991 167.639 258.042 164.662C255.093 161.684 255.1 156.845 258.063 153.854L287.106 124.528L292.2 129.672Z" stroke="#FD5444"/>
<path d="M292.2 213.57C295.285 216.685 295.278 221.748 292.178 224.878L268.746 248.538C265.783 251.53 260.991 251.537 258.042 248.56C255.093 245.582 255.1 240.743 258.063 237.751L287.106 208.426L292.2 213.57Z" stroke="#FD5444"/>
<path d="M292.2 295.844C295.285 298.959 295.278 304.023 292.178 307.153L268.746 330.813C265.783 333.804 260.991 333.811 258.042 330.834C255.093 327.856 255.1 323.017 258.063 320.026L287.106 290.7L292.2 295.844Z" stroke="#FD5444"/>
<path d="M343.629 46.586C346.714 49.7014 346.707 54.7645 343.607 57.8947L320.175 81.5547C317.212 84.5463 312.42 84.5534 309.471 81.5759C306.522 78.5984 306.529 73.7594 309.492 70.7677L338.534 41.4423L343.629 46.586Z" stroke="#FD5444"/>
<path d="M343.629 129.672C346.714 132.787 346.707 137.85 343.607 140.981L320.175 164.641C317.212 167.632 312.42 167.639 309.471 164.662C306.522 161.684 306.529 156.845 309.492 153.854L338.534 124.528L343.629 129.672Z" stroke="#FD5444"/>
<path d="M343.629 378.93C346.714 382.046 346.707 387.109 343.607 390.239L320.175 413.899C317.212 416.891 312.42 416.898 309.471 413.92C306.522 410.943 306.529 406.104 309.492 403.112L338.534 373.787L343.629 378.93Z" stroke="#FD5444"/>
<path d="M343.629 213.57C346.714 216.685 346.707 221.748 343.607 224.878L320.175 248.538C317.212 251.53 312.42 251.537 309.471 248.56C306.522 245.582 306.529 240.743 309.492 237.751L338.534 208.426L343.629 213.57Z" stroke="#FD5444"/>
<path d="M343.629 295.844C346.714 298.959 346.707 304.023 343.607 307.153L320.175 330.813C317.212 333.804 312.42 333.811 309.471 330.834C306.522 327.856 306.529 323.017 309.492 320.026L338.534 290.7L343.629 295.844Z" stroke="#FD5444"/>
<path d="M395.056 178.283C398.142 181.398 398.134 186.462 395.034 189.592L371.603 213.252C368.64 216.243 363.848 216.25 360.899 213.273C357.95 210.295 357.957 205.456 360.92 202.465L389.962 173.139L395.056 178.283Z" stroke="#FD5444"/>
<path d="M395.056 129.185C398.142 132.301 398.134 137.364 395.034 140.494L371.603 164.154C368.64 167.145 363.848 167.153 360.899 164.175C357.95 161.198 357.957 156.358 360.92 153.367L389.962 124.041L395.056 129.185Z" stroke="#FD5444"/>
<path d="M395.056 295.844C398.142 298.959 398.134 304.023 395.034 307.153L371.603 330.813C368.64 333.804 363.848 333.811 360.899 330.834C357.95 327.856 357.957 323.017 360.92 320.026L389.962 290.7L395.056 295.844Z" stroke="#FD5444"/>
</g>
</svg>
