<svg width="24" height="24" viewBox="0 0 24 24" fill="none" xmlns="http://www.w3.org/2000/svg">
<path d="M22 20.8984C22 21.5054 21.5054 22 20.8985 22V21.9925H15.8026V14.2518H18.4029L18.7925 11.2319H15.8026V9.30613C15.8026 8.4294 16.0424 7.83742 17.3013 7.83742H18.8974V5.13978C18.6202 5.10232 17.6685 5.01989 16.567 5.01989C14.259 5.01989 12.6854 6.42865 12.6854 9.00639V11.2319H10.0776V14.2518H12.6854V21.9925H3.10154C2.49457 21.9925 2 21.4979 2 20.8909V3.10153C2 2.49457 2.49457 2 3.10154 2H20.8985C21.5054 2 22 2.49457 22 3.10153V20.8984Z" fill="white"/>
</svg>
