<svg width="72" height="71" viewBox="0 0 72 71" fill="none" xmlns="http://www.w3.org/2000/svg">
<path d="M71.915 29.8621C71.8321 30.1109 71.6663 30.4425 71.6663 30.6913C71.5834 31.6864 71.6663 32.7644 71.4175 33.7594C71.0029 35.5008 71.0858 37.3251 70.2566 38.9835C69.842 39.7298 69.925 40.8078 69.6762 41.637C69.3445 42.7979 69.0128 43.8759 68.5153 44.9539C67.9348 46.1977 67.1056 47.2757 66.5251 48.4366C65.9447 49.7634 65.0325 50.6755 64.3692 51.9194C63.9546 51.1731 63.2912 50.7585 62.5449 50.5097C63.1254 49.8463 63.7887 49.1829 64.3692 48.5195C64.4521 48.4366 64.5351 48.3537 64.5351 48.1879C64.4521 47.027 65.2813 46.3636 65.9447 45.6173C65.9447 45.6173 66.0276 45.6173 66.0276 45.5344C66.2764 43.793 67.3543 42.3833 67.7689 40.7249C68.2665 38.9006 68.7641 37.0763 69.0958 35.1691C69.2616 34.3399 69.2616 33.5107 69.3445 32.6815C69.7591 32.5156 69.8421 32.2668 69.5933 31.8522C69.5933 30.7743 69.6762 29.6963 69.6762 28.5354C69.6762 28.2037 69.5933 27.872 69.5933 27.5403C69.5104 26.7111 69.5103 25.8819 69.4274 24.9697C69.4274 24.721 69.1787 24.4722 69.1787 24.3064C68.7641 22.6479 68.3494 20.9895 68.0178 19.331C67.9348 19.0823 68.2665 18.8335 68.4324 18.5847C68.6811 18.8335 69.0957 18.9164 69.2616 19.2481C69.5933 19.6627 69.7591 20.1602 70.0079 20.6578C70.1737 20.9895 70.2567 21.3212 70.3396 21.6528C70.6713 22.8137 71.0029 24.0576 71.3346 25.2185C71.4176 25.5502 71.4175 25.8819 71.4175 26.2136C71.4175 26.2965 71.3346 26.5452 71.3346 26.5452C72.1639 27.1257 71.5005 27.872 71.6663 28.5354C71.7493 28.7841 71.9151 29.0329 71.9981 29.2817C71.9151 29.4475 71.915 29.6133 71.915 29.8621ZM70.4225 29.6963C70.3396 29.8621 70.2566 29.945 70.2566 30.0279C70.3395 30.0279 70.4225 30.1109 70.5054 30.1109C70.5883 30.1109 70.6713 29.945 70.7542 29.945C70.6713 29.8621 70.5884 29.8621 70.4225 29.6963ZM64.7838 48.5195C64.7009 48.5195 64.618 48.4366 64.618 48.4366C64.5351 48.4366 64.535 48.5195 64.4521 48.5195C64.535 48.5195 64.5351 48.6025 64.618 48.6025C64.618 48.6854 64.7009 48.6025 64.7838 48.5195Z" fill="#0E0E0E"/>
<path d="M21.9175 63.6942C21.8346 63.4454 21.7516 63.1967 21.7516 62.865C22.2491 62.2016 22.2491 62.2016 21.7516 62.1187C21.9174 61.5382 22.0004 60.8748 22.1662 60.2944C22.415 59.631 22.6638 58.8847 22.9125 58.2213C23.1613 57.5579 22.9955 57.3921 22.415 57.0604C21.5858 56.5629 20.8395 55.8995 20.0932 55.2361C20.0102 55.1532 19.8445 54.9874 19.7615 54.9044C19.1811 54.1581 18.4347 53.4118 18.0201 52.5826C17.4396 51.5046 18.2689 49.8462 19.5127 49.4316C20.342 49.1828 21.1712 48.9341 22.0833 48.7682C23.4101 48.4365 24.7368 48.2707 26.0636 47.939C26.5611 47.939 27.2245 48.2707 27.6391 47.6073C27.8879 47.4415 28.3854 47.1927 28.3854 47.0268C28.3854 46.1147 28.9659 45.5343 29.2976 44.8709C29.5463 44.2904 29.795 43.7929 30.0438 43.2124C30.2096 42.8808 30.7072 42.5491 30.7072 42.2174C30.7072 41.6369 30.9559 41.2223 31.2876 40.8906C31.6193 40.559 32.034 39.9785 32.1998 39.9785C32.9461 40.2272 32.7803 39.8126 32.7803 39.398C32.7803 39.398 32.8631 39.3151 32.9461 39.3151C34.1899 39.0663 35.185 39.481 36.0142 40.3102C37.0093 41.2223 37.7556 42.3003 38.6677 43.3783C39.1652 43.9588 39.5798 44.5392 39.9944 45.1196C40.409 45.7001 40.6579 46.4464 40.9896 47.0268C41.0725 47.1927 41.3212 47.2756 41.4871 47.3585C41.9017 47.3585 42.3992 47.3585 42.8138 47.3585C43.5601 47.4415 44.2235 47.4415 44.9698 47.5244C45.3844 47.6073 45.799 47.6073 46.2136 47.6902C46.2965 47.7731 46.4624 47.939 46.5453 48.0219C46.5453 47.8561 46.6282 47.6902 46.6282 47.5244C46.7111 47.4415 46.7941 47.4415 46.877 47.3585C47.2916 47.3585 47.7062 47.3585 48.1208 47.3585C48.5354 47.4415 48.8671 47.6902 49.2818 47.6902C50.6085 47.6902 51.6035 48.3536 51.9352 49.5975C51.9352 49.7633 51.8523 50.012 51.7694 50.1779C51.2719 51.3388 50.6915 52.4168 49.6135 53.246C49.033 53.6606 48.7842 54.4069 48.2866 55.0703C47.7891 55.6507 47.3745 56.2312 46.877 56.8116L46.7941 56.7287C46.7941 56.7287 46.7941 56.7287 46.7941 56.8116H46.877C47.0428 57.3092 47.2087 57.8896 47.3745 58.3872C47.7062 59.631 48.2038 60.8748 48.4525 62.2016C48.8671 64.1917 49.1159 66.0989 49.033 68.1719C49.033 69.4987 48.4526 70.0792 47.1258 70.245C45.882 70.4108 44.6381 70.4938 43.5601 69.7475C42.8967 69.3329 42.2333 69.4158 41.57 69.2499C40.7408 69.0841 39.9945 68.7524 39.2482 68.5037C38.0873 68.0061 36.9263 67.5086 35.7654 67.0111C35.5167 66.9282 35.2679 66.9282 35.0191 67.0111C33.9411 67.5086 32.9461 68.089 31.8681 68.5037C30.1268 69.167 28.3854 69.7475 26.5611 70.328C25.649 70.5767 24.7368 70.7426 23.8246 70.7426C23.2442 70.7426 22.6637 70.4108 22.1662 70.0791C21.9174 69.9133 21.9174 69.4158 21.7516 69.0841C21.337 68.0061 21.2541 66.8452 21.5029 65.6843C21.5858 65.2697 21.5029 64.7721 21.5858 64.2746C21.5858 64.0258 21.7517 63.86 21.8346 63.6942C21.9175 63.86 21.9175 63.7771 21.9175 63.6942ZM40.409 58.0555C40.0774 58.1384 40.0774 58.2213 39.9944 58.2213C39.9115 58.2213 39.9116 58.3043 39.8286 58.3043C39.9116 58.3043 39.9945 58.3043 40.0774 58.3043C40.1604 58.3043 40.1603 58.2213 40.409 58.0555Z" fill="#FB5646"/>
<path d="M64.041 42.7979C63.4606 43.6271 62.963 44.4563 62.3826 45.2856C61.7192 46.1977 61.0558 47.1099 60.2266 47.9391C59.4803 48.6854 58.6511 49.3488 57.8219 50.0121C57.7389 50.0951 57.739 50.1779 57.6561 50.3438C57.4902 50.3438 57.3244 50.4267 57.2414 50.3438C56.7439 50.2609 56.0806 50.7584 55.8318 49.9292C55.666 49.4316 55.3342 48.9341 55.1684 48.4366C55.5001 48.1878 55.9147 48.1049 56.1634 47.7732C57.4072 46.5294 58.6511 45.2026 59.8949 43.8759C60.1437 43.6271 60.3096 43.2955 60.4754 42.9638C60.89 42.2175 61.2217 41.3882 61.8022 40.7249C62.2997 40.2273 62.1338 39.6469 62.3826 39.0664C62.7143 38.486 62.8801 37.9055 63.046 37.2421C63.3777 36.2471 63.7094 35.1691 63.8752 34.174C63.9581 33.5935 64.3727 33.096 64.041 32.4327C63.9581 32.3497 64.041 32.1009 64.041 31.9351C64.3727 30.6913 63.7923 29.4474 63.8752 28.2036C63.8752 27.1256 63.5435 26.1306 63.2118 25.1355C63.0459 24.638 62.7972 24.1404 62.5485 23.6429C62.7972 23.3112 62.7143 22.9796 62.2997 22.8966C62.2168 22.7308 62.1339 22.5649 62.1339 22.3991V22.3162H62.051C61.6364 21.6528 61.3047 20.8236 60.8071 20.2431C59.6462 18.7505 58.734 17.0921 57.3243 15.7653C56.4122 14.8532 55.2513 14.3556 54.3392 13.4435C53.0124 12.1997 51.5198 11.2875 49.8614 10.5412C48.7834 10.0437 47.7054 9.62909 46.5445 9.2974C45.6323 8.96571 44.6373 8.55112 43.6422 8.38528C42.5642 8.13651 41.4033 8.13648 40.2424 7.88772C38.7498 7.55603 37.2572 7.47313 35.7646 7.39021C34.8525 7.39021 33.9404 7.47314 33.0283 7.55606C31.1211 7.7219 29.2138 7.88774 27.3895 8.63404C26.0628 9.13157 24.6531 9.38031 23.3263 9.96077C21.7508 10.7071 20.1754 11.2876 18.9315 12.5314C18.7657 12.6972 18.434 12.7801 18.2681 12.946C17.273 13.7752 16.278 14.6874 15.2 15.4337C13.7074 16.5946 12.7953 18.1701 11.5514 19.5798C10.971 20.2431 10.8051 21.2382 10.3905 22.1503C10.0588 22.8966 9.64426 23.6429 9.3955 24.3892C9.14673 25.1355 8.815 25.7989 8.73208 26.5452C8.48332 28.2865 8.31747 30.0279 8.31747 31.7693C8.31747 33.096 8.73204 34.4228 8.89789 35.6666C9.22957 37.7396 10.3076 39.481 11.1368 41.3882C11.5514 42.3833 12.1319 43.3784 12.7953 44.2076C13.4587 45.0368 14.2878 45.7002 15.0341 46.3635C14.7024 47.1098 14.3708 47.8562 14.0391 48.6025C13.3757 47.9391 12.7123 47.2757 12.1319 46.6123C11.6343 46.1148 11.1368 45.7002 10.7222 45.1197C9.81009 43.71 8.89789 42.2174 8.06867 40.8078C7.73698 40.2273 7.73704 39.564 7.40535 39.0664C6.57613 37.7397 6.49315 36.1641 5.99562 34.7545C5.82977 34.3399 5.82979 33.9252 5.91271 33.5106C5.99564 32.2668 5.41524 31.1059 5.66401 29.7791C5.91277 28.5353 5.91275 27.2086 6.16152 25.9648C6.32736 25.0526 6.82488 24.2234 7.07364 23.3941C7.15656 23.0625 7.23945 22.7308 7.23945 22.3991C7.23945 21.3211 7.73704 20.4919 8.64918 19.8285C8.7321 19.8285 8.73208 19.7456 8.73208 19.6627C8.815 18.4188 9.72713 17.5896 10.4734 16.7604C11.2197 15.9312 11.8831 15.102 12.5465 14.1898C12.9611 13.6923 13.2928 13.1947 13.7074 12.7801C14.2049 12.3655 14.8683 12.1167 15.3658 11.6192C16.7755 10.3754 18.351 9.29743 20.0095 8.55113C21.4191 7.88776 22.9118 7.47312 24.3215 6.80974C25.4824 6.22929 26.6432 5.89761 27.887 5.73177C29.048 5.56592 30.126 5.06839 31.3698 5.31716C31.9503 5.40008 32.6965 5.06837 33.3599 4.98545C34.0232 4.90253 34.6866 4.98547 35.35 4.48794C35.5988 4.32209 36.2622 4.65377 36.8427 4.73669C37.6719 4.73669 38.5011 4.73669 39.3303 4.73669C39.662 4.81961 40.0766 4.90253 40.4082 4.98545C41.4033 5.06837 42.3984 5.4001 43.4764 5.23425H43.3935H43.3105C43.4764 5.4001 43.6423 5.56592 43.8081 5.73177C43.891 5.73177 43.9739 5.64886 44.1397 5.64886C44.0568 5.56594 44.0569 5.48298 43.9739 5.40006C44.7202 5.73175 45.4665 5.98054 46.2128 6.31223C46.6274 6.47807 47.125 6.47804 47.6225 6.64389C48.3688 6.89265 49.198 7.22434 49.9443 7.47311C50.5247 7.72187 51.1882 7.97066 51.7686 8.21943C51.6857 8.55111 51.6028 8.79989 52.1003 8.79989V8.88279C52.3491 8.88279 52.5149 8.88282 52.7636 8.96574C53.427 9.46328 54.1733 9.87785 54.8367 10.3754C56.2464 11.4534 57.8219 12.4484 59.1487 13.6094C60.2267 14.6044 61.1387 15.7653 61.968 16.9262C62.963 18.3359 63.8752 19.7456 64.7044 21.2382C65.0361 21.8186 65.2849 22.3991 65.4507 23.0625C65.8654 24.7209 66.28 26.3794 66.6117 28.0378C66.7775 28.7012 66.7775 29.3645 66.7775 30.0279C66.8604 31.023 66.8604 32.0181 66.8604 33.0131C66.8604 33.4277 66.6116 33.8423 66.5287 34.257C66.4458 35.0033 66.4458 35.8325 66.28 36.5788C65.9483 37.8226 65.6166 39.0664 65.2019 40.3102C64.9532 41.0565 64.6215 41.7199 64.2898 42.3833C64.2069 42.5491 64.2069 42.715 64.124 42.8808C64.0411 42.8808 64.041 42.8808 63.9581 42.9638H63.8752C63.9581 42.715 63.9581 42.7979 64.041 42.7979ZM18.5998 10.7071C18.5169 10.7071 18.5169 10.6242 18.5169 10.6242C18.5169 10.6242 18.4339 10.6242 18.4339 10.7071L18.5169 10.79C18.5169 10.79 18.5169 10.7071 18.5998 10.7071ZM64.6215 41.1395C64.5386 41.0565 64.5386 41.1395 64.5386 41.1395C64.5386 41.1395 64.5386 41.2224 64.6215 41.1395C64.6215 41.2224 64.6215 41.2224 64.6215 41.1395ZM9.14669 25.4672C9.06377 25.4672 9.06377 25.4672 9.14669 25.4672C9.06377 25.4672 9.06377 25.4672 9.14669 25.4672C9.06377 25.5501 9.06377 25.5501 9.14669 25.4672ZM58.817 17.0921C58.817 17.175 58.817 17.175 58.817 17.0921C58.817 17.175 58.8999 17.175 58.817 17.0921C58.8999 17.175 58.8999 17.175 58.817 17.0921C58.8999 17.0921 58.817 17.0921 58.817 17.0921Z" fill="#0A0A0A"/>
<path d="M27.6383 47.8563C27.2237 48.4367 26.6432 48.1051 26.0628 48.188C26.1457 47.3588 26.2286 46.5296 26.2286 45.7003C26.2286 45.2028 26.2286 44.7053 26.2286 44.2077C26.3944 42.3005 26.4774 40.3933 26.6432 38.569C26.6432 38.1544 26.7261 37.7398 26.7261 37.2423C26.7261 36.496 26.3116 36.1643 25.6482 35.9985C24.736 35.7497 23.8239 35.418 23.3263 34.5059H23.1605C22.3313 33.9254 21.585 33.3449 21.2533 32.267C20.9216 31.189 20.3412 30.2768 19.9265 29.1988C19.7607 28.7842 19.6777 28.2867 19.6777 27.7892C19.7607 26.1307 19.6778 24.4723 19.9265 22.8138C20.1753 21.4042 20.9216 20.1603 21.9167 19.0823C22.1655 18.8336 22.4971 18.5019 22.9117 18.8336C22.9117 18.8336 23.1605 18.6678 23.1605 18.5848C22.9947 18.0873 23.2434 18.1702 23.5751 18.1702C23.9068 18.1702 24.3214 18.1702 24.6531 18.2531C25.9798 18.336 26.6432 19.497 26.0628 20.8237C25.9799 20.9896 26.0628 21.2383 26.0628 21.4871C25.814 21.4871 25.5652 21.57 25.3165 21.57C25.3165 21.6529 25.3165 21.8188 25.3165 21.8188C25.5652 21.8188 25.814 21.9017 25.9799 21.9017H26.0628C25.9799 22.3163 25.814 22.8138 25.8969 23.2284C25.8969 24.3064 25.9798 25.4673 26.1457 26.5453C26.1457 26.7112 26.4774 26.7941 26.5603 26.9599C26.892 27.3745 27.1407 27.8721 27.5553 28.2867C27.887 28.7013 28.3017 29.1159 28.9651 28.7013C29.1309 28.6184 29.5455 28.8671 29.8772 29.033C30.1259 29.1159 30.2918 29.1988 30.5406 29.1988C30.6235 29.1988 30.7893 29.1159 30.8722 29.1159C30.7893 29.033 30.7893 28.8672 30.7064 28.8672C29.048 27.7892 28.6333 26.2137 28.7163 24.3065C28.7992 22.0676 30.2918 21.2383 32.0331 20.6579C32.4477 20.492 32.9453 19.9116 33.5258 20.492C34.0233 20.0774 34.6037 20.0774 35.2671 20.1604C36.3451 20.2433 37.0085 20.9896 37.589 21.8188C38.2523 22.8139 38.584 24.0577 38.2523 25.2186C38.0035 26.2137 38.0864 27.4575 36.6767 27.8721C36.5109 27.955 36.4281 28.5355 36.3451 28.8672C36.511 28.8672 36.7597 28.8672 36.9256 28.8672C37.8377 28.7843 38.6669 28.7842 39.579 28.6184C41.0716 28.4525 42.2325 27.7063 43.2276 26.6283C43.891 25.882 43.9739 24.9698 43.7251 24.1406C43.3934 22.8968 42.8959 21.7359 42.3984 20.492C42.0667 19.7457 42.3984 19.1653 42.9789 18.7507C43.4764 18.3361 43.9739 18.0873 44.7202 18.3361C45.7982 18.6678 46.6274 19.414 47.2908 20.3262C48.2029 21.4871 48.8663 22.8138 49.115 24.2235C49.198 24.5552 49.198 24.8869 49.198 25.1357C49.0322 25.2186 48.9493 25.3015 48.7834 25.3015C48.8664 25.3844 48.9492 25.3844 49.0321 25.4673C49.1151 25.3844 49.198 25.2186 49.198 25.1357C49.4468 26.5454 49.6955 27.955 49.0321 29.1988C48.0371 31.106 46.8762 32.9304 44.8031 33.8425C44.1398 34.1742 43.4763 34.5059 42.8959 34.9205C42.7301 35.0863 42.6472 35.5009 42.6472 35.7497C42.7301 37.1594 42.813 38.4861 42.813 39.8958C42.8959 41.803 42.8959 43.7102 42.8959 45.7003C42.8959 46.4466 42.8959 47.1929 42.8959 47.9392C42.4813 47.9392 41.9838 47.9392 41.5692 47.9392C41.4033 47.3588 41.3204 46.6954 41.1546 46.1149C40.7399 44.7053 40.9058 43.2956 40.9058 41.8859C40.8229 41.5542 40.8229 41.2226 40.7399 40.8909C40.8229 40.2275 41.0717 39.4812 40.9058 38.9007C40.6571 37.574 41.1546 36.496 41.3205 35.2521C41.3205 35.0034 41.3205 34.8375 41.3205 34.5888C41.4863 34.5888 41.735 34.5888 41.9009 34.6717C41.8179 34.5888 41.735 34.4229 41.6521 34.34C42.1496 33.9254 42.7301 33.4279 43.3105 33.0962C44.6373 32.267 45.7982 31.2719 46.7104 29.9452C47.2079 29.2818 47.5395 28.5355 47.7883 27.7063C47.8712 27.4575 47.5395 26.877 48.2029 26.877C48.2858 26.877 48.3688 26.7941 48.5346 26.7112C48.3688 26.7112 48.2858 26.5454 48.2029 26.6283C47.7883 26.877 47.7883 26.5453 47.8712 26.2966C47.8712 25.9649 48.0371 25.7161 47.9542 25.4673C47.7884 24.8869 47.6225 24.3065 47.3737 23.726C46.9591 22.648 46.5445 21.4871 45.7153 20.6579C45.1348 20.1603 44.6373 19.497 43.7251 19.9116C43.6422 19.9116 43.5593 19.9116 43.4764 19.9116L43.5593 19.9945C43.7252 20.4091 44.0569 20.9895 43.891 21.1554C43.4764 21.57 44.1397 21.4042 44.0568 21.57C44.3885 21.3212 44.3885 21.4871 44.3885 21.8188C44.3885 22.0676 44.5544 22.3163 44.6373 22.648C45.0519 23.726 45.2178 24.804 44.8031 26.0478C44.2227 27.8721 42.9789 29.033 41.3205 29.6964C40.2425 30.1939 38.9986 30.2768 37.8377 30.4427C37.3401 30.5256 36.8427 30.4427 36.3451 30.3598C35.1842 30.111 34.4379 28.3696 35.1013 27.3745C35.3501 26.9599 35.6818 26.4624 35.9305 26.0478C36.0964 25.799 36.0134 25.3015 36.5938 25.6332C36.5938 25.5503 36.6767 25.5503 36.6767 25.4673C36.0963 25.3015 36.2622 24.804 36.3451 24.3894C36.4281 23.3114 35.9304 22.648 35.0183 22.1505C34.1891 21.6529 32.2819 21.9017 31.5356 22.5651C30.3747 23.5601 30.2089 24.804 30.6235 25.882C29.9601 26.3795 30.6234 26.3795 30.8722 26.5453C31.2039 26.877 31.4527 27.2917 31.7844 27.6233C32.282 28.1209 32.6136 28.7842 32.6136 29.4476C32.6136 30.1939 32.0331 31.0231 31.2868 31.106C30.6234 31.189 30.043 31.189 29.3797 31.189C28.9651 31.189 28.3846 31.2719 28.1358 31.0231C26.3116 29.6135 24.7361 28.0379 24.3214 25.6332C24.0727 23.8918 24.0726 22.0676 24.9019 20.4091C24.9848 20.3262 24.819 20.1604 24.7361 19.9945C24.6531 19.8287 24.4873 19.6628 24.3214 19.497C24.1556 19.3311 23.9068 19.2482 23.7409 19.1653C23.658 19.4141 23.5751 19.6628 23.5751 19.9116C23.5751 19.9945 23.5751 20.2433 23.5751 20.2433C22.4142 21.0725 21.9996 22.2334 21.7508 23.5602C21.0874 26.5453 21.6679 29.2817 22.9946 31.9353C23.4092 32.7645 24.4043 33.4278 25.2336 34.0083C26.0628 34.6717 27.0578 35.0863 27.9699 35.6667C28.3845 35.9155 28.5505 36.2472 28.0529 36.5789C27.8871 36.6618 27.8041 37.0764 27.887 37.2423C28.4675 38.9007 28.3845 40.5591 28.3845 42.3005C28.0529 44.0419 27.8042 45.9491 27.6383 47.8563ZM33.1112 21.0725C33.1112 21.1554 33.0283 21.1554 33.0283 21.2383C33.1112 21.3213 33.194 21.4042 33.277 21.57C33.277 21.57 33.3599 21.4871 33.4429 21.4871C33.3599 21.3213 33.277 21.2383 33.1112 21.0725Z" fill="#101010"/>
<path d="M14.1235 48.6853C14.4552 47.939 14.7868 47.1927 15.1185 46.4464C15.5331 45.7831 15.9478 45.0368 16.4454 44.3734C16.6112 44.1246 16.9428 44.0417 17.1916 43.8759C17.2745 43.793 17.3575 43.7929 17.4404 43.71C17.5233 43.5442 17.6892 43.2954 17.7721 43.2954C18.7672 43.2954 19.6793 43.6271 20.2598 44.4563C20.7573 45.1197 21.2548 45.7002 21.7523 46.2806C22.0011 46.5294 22.167 46.8611 22.3328 47.1928C22.3328 47.1928 22.1669 47.4415 22.0011 47.5245C21.1719 47.7732 20.3427 47.939 19.5134 48.1049C18.1867 48.4366 17.3575 49.2658 16.86 50.5096C16.0308 52.5827 17.1087 54.0753 18.4354 55.485C19.0159 56.0654 19.5134 56.7288 20.3427 56.9775C20.5085 57.0605 20.6744 57.558 20.6744 57.8068C20.5914 58.9677 20.3427 60.2115 20.2598 61.3724C20.1768 62.1187 20.1769 62.948 20.1769 63.6943C20.1769 64.1089 20.0109 64.1918 19.5963 64.1918C19.0988 64.2747 18.6013 64.3576 18.1867 64.6064C16.6112 65.4356 15.0356 66.016 13.3772 66.3477C12.7138 66.5136 12.0504 66.6794 11.387 66.7623C9.39691 67.0111 8.65065 65.9331 8.73357 64.1918C8.8165 62.865 9.14814 61.6212 9.31399 60.2944C9.39691 59.5481 9.47987 58.7189 9.56279 57.9726C9.56279 57.8068 9.72868 57.558 9.8116 57.4751C10.1433 57.0605 10.1432 56.7288 9.56279 56.5629C9.39695 56.48 9.23113 56.3971 9.06528 56.2313C8.40191 55.6508 7.57267 55.1533 7.07513 54.4899C6.41176 53.6607 5.66544 52.8315 6.32882 51.6706C6.49466 51.3389 6.74347 51.0901 6.99223 50.9242C7.40684 50.6755 7.90435 50.4267 8.31896 50.2609C8.89942 50.178 9.47985 50.0121 10.0603 49.9292C10.9724 49.8462 11.9675 49.9292 12.8797 49.6804C13.4601 49.6804 14.0406 49.4316 14.1235 48.6853Z" fill="#FB5646"/>
<path d="M55.0863 48.4365C55.3351 48.934 55.5838 49.4316 55.7497 49.9291C55.9984 50.8412 56.6619 50.3437 57.1594 50.3437C57.3252 50.3437 57.4911 50.3437 57.574 50.3437C59.1495 50.4266 60.8079 50.4266 62.3834 50.5096C63.2126 50.6754 63.8761 51.09 64.2078 51.9192C63.8761 53.0802 63.1297 53.9923 62.3005 54.8215C61.8859 55.3191 61.7201 56.0653 61.2226 56.48C60.3105 57.3092 60.3933 58.0555 60.725 59.1335C61.0567 60.1285 60.9738 61.3723 61.3884 62.3674C62.0518 63.7771 61.6372 65.1038 61.7201 66.5135C61.7201 67.094 61.4713 67.4257 60.8909 67.5086C59.73 67.7573 58.4862 68.172 57.4911 67.0111C57.4082 66.9281 57.3252 66.9281 57.2423 66.9281C55.9155 67.1769 54.9204 66.2647 53.6766 66.0989C53.1791 66.016 52.7645 65.5185 52.267 65.3526C51.9353 65.1868 51.6036 65.2697 51.189 65.2697C51.106 65.2697 50.9402 65.1867 50.9402 65.1038C50.8573 64.7721 50.6915 64.4405 50.6085 64.1088C50.1939 62.1187 49.5305 60.2114 48.6184 58.4701C48.4525 58.0554 48.7013 57.3921 49.1159 57.1433C49.2817 56.9775 49.4477 56.8116 49.6135 56.5629C50.3598 55.4849 51.189 54.4898 51.8524 53.4118C52.5157 52.3338 53.1791 51.1729 53.5108 49.9291C53.6767 49.4316 53.2621 48.6853 52.9304 48.1048C52.5158 47.4414 51.8524 46.861 50.9402 46.7781C50.5256 46.6952 50.111 46.4464 49.6964 46.3635C49.2818 46.2805 48.8672 46.4464 48.4526 46.4464C48.2867 46.4464 48.1209 46.3635 47.9551 46.3635C48.038 46.2805 48.2038 46.1976 48.2038 46.0318C48.2867 45.8659 48.2867 45.783 48.2867 45.6171C48.6184 45.2855 48.7842 44.6221 49.5305 44.7879C49.5305 44.7879 49.6964 44.4563 49.7793 44.2904C50.0281 44.4563 50.4427 43.627 50.6085 44.3733C51.189 44.0416 51.3549 44.5392 51.6866 44.8709C52.267 45.3684 52.8475 45.8659 53.345 46.3635C53.7596 46.861 54.0912 47.4415 54.4229 47.939C54.7546 48.1878 54.9205 48.2707 55.0863 48.4365Z" fill="#FB5646"/>
<path d="M19.7601 3.32697C20.6722 2.82944 21.5843 2.24899 22.5794 1.83438C23.0769 1.58562 23.5744 1.58565 24.1549 1.50273C24.1549 1.58565 24.1549 1.66856 24.1549 1.75148C24.2378 1.66856 24.2379 1.58565 24.3208 1.50273C26.3939 0.922271 28.4669 0.590573 30.7058 0.507651C31.7837 0.507651 32.7789 0.258865 33.8568 0.175943C34.8519 0.0930207 35.8469 0.175973 36.9249 0.258895C38.0029 0.258895 39.0809 0.341777 40.1589 0.424699C41.4027 0.507621 42.6465 0.673495 43.8904 0.922261C44.9684 1.0881 46.0464 1.25396 47.1244 1.50273C48.534 1.91733 49.8607 2.49775 51.1875 2.91236C52.9288 3.49281 54.5044 4.32205 56.0799 5.31712C56.4945 5.6488 56.8261 6.7268 56.5774 7.14141C56.3286 7.4731 55.1678 7.4731 54.7531 7.14141C54.7531 7.14141 54.7531 7.05848 54.7531 6.97556C54.7531 6.89263 54.836 6.80972 54.836 6.7268C54.7531 6.7268 54.5873 6.64388 54.5043 6.7268C53.9239 6.97557 53.3435 7.22431 53.0947 6.39509C53.0947 6.31217 52.9289 6.31219 52.9289 6.31219C52.5143 6.7268 52.3484 6.22928 52.0167 6.06343C50.7728 5.5659 49.4461 5.23417 48.2852 4.5708C47.5389 4.15619 46.6268 4.32205 45.9634 3.65868C45.8805 3.57575 45.7147 3.7416 45.5488 3.65868C44.1391 3.16114 42.7295 3.16115 41.3198 2.99531C40.5735 2.91239 39.9101 2.74652 39.1638 2.6636H39.0809C38.6663 2.00023 38.2516 2.74652 37.837 2.6636C37.0907 2.49776 36.3445 2.41485 35.5982 2.41485C35.0177 2.41485 34.4373 2.5807 33.9397 2.5807C33.3593 2.5807 32.7789 2.5807 32.1984 2.5807C32.0326 2.5807 31.7837 2.5807 31.6179 2.5807C30.2911 2.74654 28.9644 2.91237 27.6377 3.07821C26.5597 3.24406 25.4817 3.32701 24.4037 3.57577C22.9111 3.90746 21.5014 4.32204 20.0917 4.73665C19.8429 4.65373 19.6772 4.65372 19.4284 4.5708C19.3455 4.40495 19.2625 4.23911 19.0967 4.15619C19.0967 4.07327 19.0967 3.99035 19.0967 3.90743C19.2625 3.74159 19.5113 3.49281 19.7601 3.32697ZM47.6219 2.16609C47.5389 2.08317 47.456 2.00024 47.3731 2.00024C47.2901 2.08316 47.2073 2.16607 47.1244 2.24899C47.1244 2.24899 47.2072 2.41485 47.2902 2.41485C47.3731 2.33192 47.456 2.24901 47.6219 2.16609Z" fill="#0E0D0D"/>
<path d="M10.1411 50.0122C9.5606 50.0951 8.98016 50.2609 8.39971 50.3438C7.32172 49.1829 6.24372 48.1049 5.16573 46.944C3.50729 45.0368 2.59515 42.7979 1.84885 40.4761C1.76593 40.0615 1.43428 39.8127 1.68305 39.3981C1.68305 39.3152 1.35136 39.0664 1.26844 38.9006C1.10259 38.2372 0.770905 37.4909 0.853827 36.8275C0.936749 36.0812 0.522119 35.4179 0.522119 34.7545C0.522119 33.4277 0.190451 32.1839 0.0246073 30.8571C-0.141237 30.0279 0.522119 29.1987 1.35134 29.4475C1.68303 29.5304 2.01472 29.945 2.18056 30.3596C2.3464 30.7742 2.26354 31.2718 2.34646 31.6864C2.59523 33.5106 2.76105 35.4179 3.25859 37.2421C3.83904 39.481 4.25359 41.8029 5.58034 43.793C6.16079 44.7051 6.65841 45.6173 7.32178 46.5294C8.151 47.6903 9.14599 48.8512 10.1411 50.0122ZM2.59517 38.9835C2.51225 38.8176 2.42937 38.7347 2.42937 38.7347C2.26352 38.8177 2.09768 38.9006 2.01476 38.9006L2.09766 38.9835C2.2635 39.0664 2.42933 38.9835 2.59517 38.9835Z" fill="#0E0E0E"/>
<path d="M60.643 8.13647C60.7259 8.2194 61.0577 8.30232 61.2235 8.55108C61.6381 8.96569 62.0528 9.29735 62.4674 9.71196C62.7161 9.96073 63.1307 10.1266 62.799 10.5412C62.799 10.6241 62.9649 10.9558 63.0478 10.9558C63.7941 10.9558 63.9599 11.4533 63.9599 11.9509C63.9599 12.2826 63.6283 12.7801 63.3795 13.0288C62.882 13.3605 62.3844 12.9459 61.9697 12.6142C61.4722 12.1167 61.0576 11.6192 60.643 11.0387C60.2284 10.4583 59.8968 9.87783 59.5651 9.21445C59.4822 8.634 59.8138 8.13647 60.643 8.13647ZM61.721 9.46321C61.4723 9.29736 61.3894 9.21445 61.3064 9.21445C61.1406 9.21445 60.9747 9.21443 60.8918 9.29735C60.9747 9.38027 61.0577 9.54611 61.2235 9.54611C61.3065 9.54611 61.3894 9.54613 61.721 9.46321Z" fill="#101010"/>
<path d="M2.92433 21.5698C3.75355 21.7357 3.75359 22.3991 3.58775 22.9795C3.4219 23.6429 3.09021 24.3063 2.75853 24.9697C2.59268 25.2184 2.17805 25.4672 2.01221 25.3843C1.68052 25.2184 1.43173 24.8867 1.26589 24.555C1.01712 23.8917 1.84634 22.1503 2.50972 21.7357C2.67556 21.8186 2.75849 21.9015 2.92433 21.9844C3.00725 21.8186 3.00725 21.6527 2.92433 21.5698Z" fill="#101010"/>
<path d="M19.3475 4.65384C19.5963 4.73677 19.7621 4.73678 20.0108 4.8197C19.4304 4.98554 18.8499 5.23427 18.2695 5.40011C17.689 5.56596 17.6061 5.23431 17.8549 4.8197C18.0207 4.48801 18.3524 4.23924 18.6841 3.99048C18.6841 3.99048 18.9329 4.15631 19.0987 4.23923C19.0158 4.40508 19.0158 4.5709 19.0158 4.73675C19.0158 4.65382 19.1817 4.65384 19.3475 4.65384Z" fill="#101010"/>
<path d="M46.2946 48.0219C45.88 47.939 45.4654 47.939 45.0508 47.8561C45.4654 47.8561 45.88 47.8561 46.2946 47.7732C46.2946 47.8561 46.2946 47.939 46.2946 48.0219Z" fill="#FAFAFA"/>
<path d="M26.2268 21.8185C25.8951 21.8185 25.7292 21.8185 25.4805 21.8185C25.4805 21.8185 25.4805 21.6526 25.4805 21.5697C25.7292 21.5697 25.978 21.4868 26.2268 21.4868C26.1439 21.5697 26.2268 21.6527 26.2268 21.8185Z" fill="#FAFAFA"/>
<path d="M40.4061 4.90256C40.0744 4.81964 39.6598 4.73673 39.3281 4.65381C39.6598 4.73673 40.0744 4.81964 40.4061 4.90256Z" fill="#5D5D5D"/>
<path d="M62.2151 22.8965C62.6297 23.0623 62.7127 23.3111 62.4639 23.6428C62.0493 23.5598 61.9663 23.3111 62.2151 22.8965Z" fill="#5D5D5D"/>
<path d="M21.75 62.2017C22.1646 62.2846 22.1646 62.2846 21.75 62.948C21.75 62.6992 21.75 62.4504 21.75 62.2017Z" fill="#FAFAFA"/>
<path d="M19.759 3.3269C19.5102 3.49275 19.2615 3.74152 19.0127 3.90737C19.2615 3.74152 19.5102 3.49275 19.759 3.3269Z" fill="#101010"/>
<path d="M69.5955 31.8523C69.9272 32.184 69.7613 32.5157 69.3467 32.6815C69.4296 32.4327 69.5126 32.1011 69.5955 31.8523Z" fill="#5D5D5D"/>
<path d="M52.1006 8.79995C51.686 8.79995 51.686 8.46825 51.7689 8.21948C52.2664 8.21948 52.2665 8.46826 52.1006 8.79995Z" fill="#5D5D5D"/>
<path d="M43.972 5.40018C44.0549 5.4831 44.0549 5.56606 44.1378 5.64898C44.0549 5.64898 43.8891 5.81481 43.8062 5.73189C43.6404 5.56604 43.4744 5.40022 43.3086 5.23438C43.3086 5.23438 43.3087 5.23438 43.3916 5.23438H43.4745C43.6403 5.3173 43.8062 5.31726 43.972 5.40018Z" fill="#FAFAFA"/>
<path d="M46.7125 47.8562C46.7125 48.022 46.6295 48.1879 46.6295 48.3538C46.5465 48.2708 46.3808 48.105 46.2979 48.0221C46.4637 47.9391 46.5466 47.9391 46.7125 47.8562Z" fill="#FAFAFA"/>
<path d="M64.2021 42.632C64.2851 42.4662 64.285 42.3004 64.368 42.1345C64.285 42.3004 64.2021 42.4662 64.2021 42.632Z" fill="#FAFAFA"/>
<path d="M2.92643 21.5698C2.92643 21.7357 3.00934 21.8186 3.00934 21.9844C2.84349 21.9015 2.76057 21.8186 2.59473 21.7357C2.76057 21.6528 2.84351 21.5698 2.92643 21.5698Z" fill="#5D5D5D"/>
<path d="M19.3472 4.65357C19.1814 4.65357 19.0985 4.65357 18.9326 4.65357C18.9326 4.48772 19.0155 4.32185 19.0155 4.15601C19.0984 4.32185 19.2643 4.48772 19.3472 4.65357Z" fill="#FAFAFA"/>
<path d="M52.8469 8.88271C52.5981 8.88271 52.4324 8.88273 52.1836 8.7998C52.3494 8.88273 52.5981 8.88271 52.8469 8.88271Z" fill="#5D5D5D"/>
<path d="M61.9646 22.3162C61.9646 22.3162 62.0476 22.3991 61.9646 22.3162C62.0476 22.3162 61.9646 22.3991 61.9646 22.3991C61.8817 22.3991 61.8818 22.3162 61.7988 22.3162C61.8818 22.3162 61.9646 22.3162 61.9646 22.3162Z" fill="#5D5D5D"/>
<path d="M46.7125 47.8561C46.5466 47.939 46.4637 47.939 46.2979 48.0219C46.2979 47.939 46.2979 47.8561 46.2979 47.7732C46.3808 47.8561 46.5466 47.8561 46.7125 47.8561Z" fill="#FB5646"/>
<path d="M24.239 1.58563C24.1561 1.66855 24.1562 1.75146 24.0732 1.83438C24.0732 1.75146 24.0732 1.66855 24.0732 1.58563C24.1562 1.50271 24.239 1.50271 24.239 1.58563Z" fill="#FAFAFA"/>
<path d="M21.9159 63.6943C21.9159 63.7773 21.9159 63.8601 21.9159 63.8601C21.833 63.7772 21.8329 63.7773 21.75 63.6943C21.8329 63.7773 21.9159 63.7773 21.9159 63.6943Z" fill="#FB5646"/>
<path d="M64.0419 42.7979C64.0419 42.715 63.959 42.715 63.959 42.6321H64.0419C64.0419 42.715 64.0419 42.7979 64.0419 42.7979Z" fill="#FAFAFA"/>
<path d="M66.6123 34.0911C66.6952 34.0911 66.6952 34.0911 66.7781 34.0911V34.174C66.6123 34.091 66.6123 34.0911 66.6123 34.0911Z" fill="#0A0A0A"/>
<path d="M70.4247 29.6963C70.5905 29.8621 70.6735 29.8621 70.7564 29.945C70.6735 30.028 70.5905 30.1109 70.5076 30.1109C70.4247 30.1109 70.3417 30.0279 70.2588 30.0279C70.3417 29.945 70.3418 29.8621 70.4247 29.6963Z" fill="#5D5D5D"/>
<path d="M64.7848 48.5194C64.7019 48.6023 64.619 48.6024 64.619 48.6024C64.5361 48.6024 64.536 48.5194 64.4531 48.5194C64.536 48.5194 64.5361 48.4365 64.619 48.4365C64.619 48.4365 64.7019 48.5194 64.7848 48.5194Z" fill="#FDFDFD"/>
<path d="M40.907 41.7199C40.907 43.1296 40.7411 44.5393 41.1558 45.9489C41.3216 46.5294 41.4045 47.1099 41.5704 47.7732C41.4045 47.6903 41.1558 47.6074 41.0728 47.4415C40.7412 46.7781 40.4095 46.1148 40.0778 45.5343C39.6632 44.871 39.1656 44.3734 38.751 43.793C37.9218 42.715 37.0926 41.637 36.0975 40.7249C35.2683 39.9786 34.2733 39.481 33.0295 39.7298C32.9465 39.7298 32.8636 39.8127 32.8636 39.8127C32.9465 40.2273 33.1124 40.6419 32.2831 40.3932C32.1173 40.3102 31.7027 40.9736 31.371 41.3053C31.0393 41.7199 30.7905 42.0516 30.7905 42.6321C30.7905 42.9637 30.293 43.2125 30.1272 43.6271C29.8784 44.1247 29.6296 44.7051 29.3809 45.2856C29.0492 46.0319 28.4687 46.5294 28.4687 47.4415C28.4687 47.6074 27.9712 47.8561 27.7224 48.022C27.8883 46.1148 28.137 44.2905 28.2199 42.3833C28.3029 40.7249 28.3858 38.9835 27.7224 37.325C27.6395 37.1592 27.7224 36.7446 27.8882 36.6617C28.3858 36.33 28.2199 35.9983 27.8053 35.7495C26.8932 35.1691 25.981 34.6716 25.0689 34.0911C24.2396 33.5106 23.2446 32.8473 22.83 32.0181C21.5033 29.4475 20.9228 26.6281 21.5862 23.6429C21.8349 22.3162 22.2495 21.1552 23.4104 20.326C23.4933 20.2431 23.4104 20.0773 23.4104 19.9944C23.4933 19.7456 23.5763 19.4968 23.5763 19.248C23.7422 19.331 23.9909 19.4139 24.1567 19.5798C24.3226 19.7456 24.4884 19.9114 24.5714 20.0773C24.6543 20.1602 24.7373 20.409 24.7373 20.4919C23.908 22.1503 23.908 23.8917 24.1567 25.716C24.5714 28.1207 26.0639 29.7791 27.9711 31.1059C28.3028 31.3546 28.8004 31.2717 29.215 31.2717C29.8783 31.2717 30.5418 31.2718 31.1222 31.1888C31.8685 31.1059 32.5319 30.2767 32.4489 29.5304C32.4489 28.867 32.1173 28.2036 31.6197 27.7061C31.288 27.3744 30.9564 26.9598 30.7076 26.6281C30.6247 26.3794 30.5417 26.2135 30.4588 25.9648C30.0442 24.9697 30.1272 23.7259 31.371 22.6479C32.1173 21.9845 34.0245 21.7357 34.8537 22.2333C35.6829 22.7308 36.2634 23.3941 36.1804 24.4721C36.1804 24.8038 36.0146 25.3014 36.5121 25.5501C36.5121 25.6331 36.4292 25.633 36.4292 25.716C35.9317 25.3843 35.9317 25.9647 35.7658 26.1306C35.4341 26.5452 35.1854 27.0427 34.9366 27.4573C34.2732 28.4524 35.0195 30.1938 36.1804 30.4425C36.678 30.5254 37.1755 30.6084 37.6731 30.5255C38.834 30.3596 40.0778 30.1938 41.1558 29.7792C42.8142 29.1158 44.0581 27.9548 44.6385 26.1306C45.0531 24.8867 44.8872 23.8917 44.4726 22.7308C44.3897 22.482 44.2239 22.2332 44.2239 21.9016C44.2239 21.5699 44.2239 21.404 43.8922 21.6528C43.9751 21.487 43.2288 21.6528 43.7263 21.2382C43.8922 21.0724 43.5605 20.4919 43.3947 20.0773L43.3117 19.9944C43.3946 19.9944 43.4776 19.9944 43.5605 19.9944C44.4727 19.6627 44.9702 20.2431 45.5507 20.7406C46.4628 21.5699 46.8774 22.7308 47.2091 23.8088C47.3749 24.3892 47.6237 24.9697 47.7895 25.5501C47.8724 25.7989 47.7066 26.1306 47.7066 26.3794C47.7066 26.5452 47.6237 26.9598 48.0383 26.711C48.1212 26.6281 48.2871 26.794 48.37 26.794C48.2871 26.8769 48.2042 26.9598 48.0383 26.9598C47.292 26.9598 47.7066 27.4573 47.6237 27.789C47.292 28.5353 46.9603 29.3645 46.5457 30.0279C45.6335 31.2717 44.4727 32.2668 43.1459 33.1789C42.5654 33.5935 42.0679 34.0082 41.4875 34.4228C41.4045 34.5057 41.2387 34.5886 41.1558 34.6716C40.9899 34.8374 40.907 35.0032 40.7411 35.252C40.8241 35.252 40.9899 35.3349 41.0728 35.3349C40.907 36.5788 40.4095 37.6567 40.6582 38.9835C40.8241 39.6468 40.5754 40.3102 40.4924 40.9736C40.5754 41.1395 40.3266 41.4712 40.907 41.7199Z" fill="#FAFAFA"/>
<path d="M40.4066 58.0554C40.1578 58.2213 40.1579 58.3042 40.075 58.3042C39.9921 58.3042 39.9091 58.3042 39.8262 58.3042C39.9091 58.3042 39.9091 58.2213 39.992 58.2213C40.0749 58.1384 40.1578 58.1383 40.4066 58.0554Z" fill="#FAFAFA"/>
<path d="M47.0419 57.0605H46.959C46.959 57.0605 46.959 57.0605 47.0419 57.0605C47.0419 57.1435 47.0419 57.0605 47.0419 57.0605Z" fill="#FDFDFD"/>
<path d="M18.6033 10.7072C18.5204 10.7072 18.5203 10.7901 18.4374 10.7901L18.3545 10.7072L18.4374 10.6243C18.5203 10.6243 18.5204 10.7072 18.6033 10.7072Z" fill="#101010"/>
<path d="M64.6229 41.1394C64.6229 41.2223 64.6229 41.2223 64.6229 41.1394C64.54 41.1394 64.54 41.1394 64.54 41.1394C64.54 41.1394 64.54 41.1394 64.6229 41.1394Z" fill="#FDFDFD"/>
<path d="M9.147 25.4673C9.06298 25.5513 9.06298 25.5513 9.147 25.4673C9.06298 25.4673 9.06298 25.4673 9.147 25.4673C9.06298 25.4673 9.06298 25.4673 9.147 25.4673Z" fill="#FDFDFD"/>
<path d="M58.8145 17.092C58.8145 17.092 58.8985 17.092 58.8145 17.092C58.8985 17.1761 58.8985 17.1761 58.8145 17.092C58.8985 17.1761 58.8145 17.1761 58.8145 17.092C58.8145 17.1761 58.8145 17.1761 58.8145 17.092Z" fill="#FDFDFD"/>
<path d="M40.9027 41.7197C40.3223 41.4709 40.6539 41.1392 40.7368 40.7246C40.7368 41.0563 40.8198 41.388 40.9027 41.7197Z" fill="#5D5D5D"/>
<path d="M41.318 35.0863C41.2351 35.0863 41.0693 35.0033 40.9863 35.0033C41.1522 34.8375 41.2351 34.6716 41.4009 34.4229C41.318 34.6716 41.318 34.8375 41.318 35.0863Z" fill="#5D5D5D"/>
<path d="M30.6234 25.7158C30.7063 25.9646 30.7892 26.1305 30.8721 26.3792C30.5404 26.2134 29.96 26.1304 30.6234 25.7158Z" fill="#5D5D5D"/>
<path d="M41.3242 34.4228C41.4071 34.3399 41.5729 34.257 41.6558 34.1741C41.7387 34.257 41.8217 34.4229 41.9046 34.5058C41.7388 34.4229 41.4901 34.4228 41.3242 34.4228Z" fill="#5D5D5D"/>
<path d="M33.1102 21.0723C33.2761 21.2381 33.359 21.3211 33.442 21.404C33.359 21.404 33.276 21.4869 33.276 21.4869C33.1931 21.404 33.1103 21.321 33.0273 21.1552C33.0273 21.2381 33.1102 21.1552 33.1102 21.0723Z" fill="#FAFAFA"/>
<path d="M49.1988 24.8867C49.1159 24.9696 49.0329 25.1355 49.0329 25.2184C48.95 25.1355 48.8671 25.1355 48.7842 25.0526C48.95 25.0526 49.1159 24.9696 49.1988 24.8867C49.1988 24.9696 49.1988 24.8867 49.1988 24.8867Z" fill="#FDFDFD"/>
<path d="M47.6235 2.1661C47.4576 2.24902 47.3747 2.33193 47.2918 2.41485C47.2089 2.33193 47.126 2.249 47.126 2.249C47.2089 2.16608 47.2918 2.08317 47.3747 2.00024C47.3747 2.00024 47.4576 2.08318 47.6235 2.1661Z" fill="#FAFAFA"/>
<path d="M2.59311 38.9835C2.34434 38.9835 2.26144 39.0665 2.0956 39.0665L2.0127 38.9835C2.17854 38.9006 2.34438 38.8177 2.42731 38.8177C2.42731 38.7348 2.51019 38.8177 2.59311 38.9835Z" fill="#FAFAFA"/>
<path d="M61.7188 9.46311C61.3871 9.54603 61.2212 9.54601 61.1382 9.54601C61.0553 9.54601 60.9725 9.38018 60.8066 9.29726C60.9725 9.29726 61.1383 9.21436 61.2213 9.21436C61.3871 9.21436 61.47 9.29727 61.7188 9.46311Z" fill="#FAFAFA"/>
</svg>
