<svg width="87" height="68" viewBox="0 0 87 68" fill="none" xmlns="http://www.w3.org/2000/svg">
<path d="M42.8282 67.149C43.1069 67.7991 42.271 67.5204 42.1782 67.8919C42.0853 67.8919 42.0852 67.8919 41.9923 67.8919C41.8995 67.7062 41.8995 67.5205 41.8066 67.3347C42.1781 67.2418 42.4567 67.2418 42.8282 67.149Z" fill="#5D5D5D"/>
<path d="M76.2628 37.0572C77.4702 37.1501 78.6776 37.243 79.885 37.4287C80.8137 37.5216 81.7425 37.8931 82.5784 37.9859C83.6 38.0788 84.5287 38.0788 85.5504 37.9859C86.2934 37.9859 86.7577 38.3574 86.9435 38.9147C87.1292 39.472 86.8507 39.9364 86.2006 40.215C85.4576 40.5865 84.8074 41.1437 84.1572 41.6081C84.0644 41.701 84.0644 41.9796 84.1572 41.9796C84.8074 42.3511 85.4575 42.6297 86.1076 43.0012C86.9435 43.3727 87.2221 44.3015 86.572 44.8587C86.1076 45.3231 85.4576 45.5089 84.8074 45.7875C84.4359 45.9733 83.9715 45.9732 83.5071 46.0661C83.4143 46.0661 83.4142 46.0661 83.3213 46.159C82.857 46.7163 82.2068 46.9949 81.4638 47.0878C80.9066 47.1807 80.3494 47.1806 79.885 47.4592C79.4206 47.7379 79.142 48.2022 79.2349 48.8524C79.4207 50.1526 79.0491 51.2671 78.1203 52.103C77.4702 52.6603 76.6343 52.3817 75.8913 52.2888C75.1483 52.1959 74.4982 52.3816 73.7552 52.3816C73.0122 52.3816 72.2692 52.3816 71.5262 52.3816C70.3188 52.3816 69.1114 52.2888 67.904 52.1959C66.7895 52.1031 65.7679 52.103 64.6534 52.0102C63.8175 52.0102 63.0745 52.0102 62.2387 52.0102C61.7743 52.0102 61.4028 51.7315 60.9384 51.7315C59.3595 51.8244 57.7806 51.9173 56.2018 52.0102C55.8303 51.9173 55.4588 51.6386 55.0873 51.6386C54.1585 51.8244 53.2298 52.103 52.301 52.2888C52.0224 52.1959 51.8366 52.0102 51.558 52.0102C50.4435 52.2888 49.2361 51.8244 48.1216 52.103C47.5644 52.2888 46.9143 52.103 46.2641 52.103C44.9639 52.2888 43.5707 52.5674 42.2705 52.5674C40.6916 52.6603 39.2056 52.4745 37.6267 52.9389C37.1623 52.9389 36.6979 52.846 36.2335 52.846C36.1407 52.846 36.1407 52.9389 36.0478 52.9389C35.8621 52.846 35.5834 52.5674 35.4905 52.6603C34.5617 53.1247 33.5401 52.3817 32.7042 52.9389C32.6114 52.9389 32.4257 52.9389 32.3328 52.9389C32.1471 53.0318 31.8684 53.0318 31.6826 53.1247C31.4969 53.1247 31.3112 53.2175 31.1254 53.2175C31.0325 53.3104 31.0326 53.3104 30.9397 53.4033C30.5682 52.846 30.1038 53.4033 29.7323 53.3104C28.432 52.846 27.2246 54.0534 26.0173 53.2175L25.8315 53.3104C24.2527 53.4033 22.6737 53.4033 21.0948 53.4961C20.6304 53.4961 20.259 53.7748 19.7946 53.9605C19.0516 53.8676 18.4015 53.6819 17.6585 53.6819C17.287 53.6819 16.8225 53.7748 16.451 53.8677C15.0579 53.9605 13.6648 54.0534 12.2716 54.0534C11.5286 54.0534 10.6928 54.0534 9.94977 54.0534C9.67114 53.9606 9.3926 53.9605 9.11398 53.8677C8.83535 53.589 8.55672 53.3104 8.18522 53.0318C7.9066 52.103 7.6279 51.1743 7.53503 50.2455C7.44215 49.874 7.72076 49.4096 7.1635 49.131C6.792 48.9452 6.42057 48.8524 5.95619 48.7595C4.47018 48.4809 2.89128 48.2951 1.40527 47.9236C0.66227 47.7379 0.290723 47.0878 0.197847 46.4376C0.104972 45.7875 0.290745 45.1374 1.03375 44.7659C1.591 44.4873 1.9625 44.1157 2.42688 43.7442C2.51976 43.6514 2.33405 43.2799 2.24117 43.0012C1.96255 42.5369 1.6839 42.1654 1.40527 41.7939C1.3124 41.701 1.4053 41.5152 1.31242 41.3295C1.31242 41.2366 1.21948 41.0508 1.1266 40.958C0.569349 40.6793 0.383644 39.9364 0.940896 39.6577C1.77677 39.1934 2.6127 38.8219 3.54145 38.5432C4.37733 38.2646 5.30599 38.1717 6.23475 38.0789C6.792 37.986 7.44215 37.9859 7.9994 37.9859C8.27803 38.1717 8.64955 38.3575 8.83531 38.6361C9.76406 39.6577 10.5071 40.7722 11.4359 41.7939C12.086 42.444 12.9219 42.5369 13.7577 42.0725C14.8723 42.0725 15.9867 41.7939 17.1012 41.9796C18.1229 42.1654 19.3302 41.701 20.3519 41.6081C21.3735 42.0725 22.4879 41.9796 22.9523 41.2366C23.7882 41.4223 24.5313 41.701 25.3672 41.8867C25.46 41.8867 25.5529 41.7939 25.6457 41.7939C25.8315 41.701 26.0172 41.6081 26.203 41.6081C26.6673 41.6081 27.1318 41.701 27.6891 41.6081C29.3608 41.6081 31.0325 41.5153 32.7042 41.5153C34.4689 41.5153 36.3264 41.6081 38.0911 41.6081C38.5554 41.6081 38.927 41.4223 39.3913 41.4223C40.413 41.4223 41.4345 41.4223 42.4562 41.4223C42.9205 41.4223 43.4779 41.1437 43.9423 41.2366C44.5924 41.2366 45.1496 41.6081 45.7998 41.6081C46.8214 41.6081 47.9358 41.6081 48.9574 41.5153C50.3506 41.4224 51.7437 41.3295 53.1368 41.3295C54.0656 41.3295 54.9943 41.3295 55.9231 41.4223C57.3162 41.6081 58.7094 41.4223 60.1025 41.2366C60.9384 41.0508 61.9601 41.5152 62.6102 40.7722C63.5389 40.958 64.3748 41.6081 65.3036 41.3295C66.0466 41.2366 66.7895 41.1437 67.5325 41.1437C68.2755 41.1437 69.1114 41.0508 69.7615 41.2366C71.1547 41.701 72.2692 41.2366 73.3837 40.4007C74.4053 39.5649 75.6127 38.8218 75.6127 37.243C75.9842 37.4287 76.17 37.2429 76.2628 37.0572ZM32.147 53.0318C32.147 53.0318 32.0541 52.9389 32.147 53.0318C32.0541 53.0318 32.0542 53.0318 32.0542 53.0318C32.0542 53.0318 32.0541 53.0318 32.147 53.0318C32.0541 53.0318 32.147 53.0318 32.147 53.0318Z" fill="#FB5646"/>
<path d="M76.2624 37.0573C76.1695 37.2431 75.9838 37.4289 75.9838 37.6146C75.9838 39.1935 74.7764 39.9365 73.7548 40.7723C73.7548 40.5866 73.7548 40.308 73.7548 40.1223C73.6619 39.3793 73.569 38.6362 73.4761 37.8932C73.569 37.8932 73.5691 37.8932 73.662 37.8004C73.662 37.8004 73.662 37.8003 73.662 37.7075L73.569 37.8004C73.2904 36.9645 73.1047 36.2215 72.8261 35.3856C72.6403 34.8283 72.8261 34.2711 72.2688 33.8067C71.9902 33.5281 71.9902 32.5065 72.2688 32.2278C72.6403 31.8563 72.5474 31.5777 72.5474 31.2062C72.5474 31.0204 72.4545 30.8347 72.5474 30.7418C72.9189 30.0917 73.0118 29.0701 73.4761 28.6057C74.1263 28.0484 74.1263 27.3983 74.2192 26.6553C74.4049 25.8194 73.7548 25.355 73.2904 24.9835C72.8261 24.5191 72.1759 24.3334 71.7115 23.8691C71.0614 23.2189 69.9469 22.8474 69.854 21.7329L69.9469 21.8258C69.8541 21.8258 69.854 21.7329 69.7611 21.7329C69.7611 21.7329 69.7611 21.8258 69.6683 21.8258H69.5754C68.368 20.8042 68.1822 19.1324 67.4392 17.8322C67.3464 17.7393 67.4392 17.6464 67.4392 17.4606C67.3464 17.0891 67.3464 16.8105 67.2535 16.5319C67.1607 16.3461 67.0677 16.1604 67.0677 15.8817C67.0677 14.6744 66.7891 13.5598 66.4176 12.4453C66.4176 12.3525 66.3248 12.1668 66.3248 12.0739C65.0245 11.6095 63.8172 11.238 62.5169 10.8665C61.9597 10.6808 61.4024 10.7736 60.8451 10.6807C60.195 10.495 59.5449 10.0306 58.8947 9.93775C57.8731 9.84488 57.223 9.00897 56.6657 8.45171C55.8298 7.61583 55.2726 6.40849 54.6225 5.29398C54.1581 4.55098 53.6937 4.0866 52.765 3.90085C51.7434 3.62223 50.7217 3.90081 49.7929 4.08656C48.3069 4.36518 46.821 4.82959 45.335 5.10822C43.9418 5.38685 42.5487 5.66545 41.1556 5.66545C39.2981 5.75833 37.4405 5.4797 35.6759 4.7367C34.5614 4.27232 33.4468 3.99373 32.1466 4.36523C30.7535 4.82961 29.8247 5.94409 28.7102 6.77997C28.153 7.15147 27.5028 7.80157 27.5028 8.26595C27.5028 9.28758 26.7599 9.10184 26.2955 9.38047C25.924 9.56622 25.5524 9.84483 25.1809 10.1235C25.0881 10.2163 25.0881 10.3093 24.9952 10.4021C23.6021 11.0523 22.3018 12.2596 20.5372 11.981C20.3514 11.981 20.2585 12.0739 20.0728 12.0739C18.9583 12.3525 18.4939 13.2812 17.7509 14.0242C16.7293 15.1387 16.5435 16.6248 16.3578 17.925C16.0791 20.154 16.1721 22.383 16.1721 24.6121C16.1721 24.7978 16.3578 25.2622 15.8005 24.8907C15.8005 24.8907 15.6147 24.9836 15.5219 25.0764C15.5219 25.1693 15.6148 25.355 15.6148 25.355C16.265 25.5408 16.1721 26.0052 16.0792 26.5624C15.8006 27.584 15.7076 28.6057 15.429 29.5344C15.3361 29.9988 14.9647 30.3703 14.6861 30.7418C14.5932 30.8347 14.5003 30.9276 14.4074 31.1133C13.943 31.6706 13.4786 32.2278 13.1071 32.8779C12.9214 33.1566 12.6428 33.4352 12.457 33.7138C12.3642 33.8996 12.1784 34.1782 12.0855 34.364C11.9926 34.4568 11.9927 34.5497 11.8998 34.7354C11.8069 35.1069 11.6211 35.4785 11.6211 35.85C11.5283 37.8003 12.2712 39.4721 13.2 41.1439C13.4786 41.6082 13.8501 41.9798 14.1287 42.4441C13.2929 42.9085 12.457 42.8156 11.8069 42.1655C10.8781 41.1438 10.0423 40.0294 9.20641 39.0077C9.02066 38.7291 8.64913 38.5434 8.37051 38.3576C8.27763 37.6146 8.27768 36.7787 8.1848 36.0357C8.09193 35.1998 8.27768 34.5497 8.64918 33.7138C9.48506 31.9492 10.7853 30.6489 11.9927 29.1629C12.7357 28.2342 12.9214 27.0268 12.9214 25.8194C13.0143 23.7762 12.6428 21.8258 12.9214 19.7825C13.1072 18.668 12.7357 17.3678 13.3858 16.2533C12.6428 15.0459 13.8501 14.4886 14.1287 13.5599C14.2216 13.7456 14.2217 13.8385 14.3146 14.0242C14.4074 13.9314 14.4074 13.8385 14.5003 13.7456L14.5931 13.6528C14.5002 13.6528 14.5003 13.7456 14.4074 13.7456C14.3145 13.7456 14.2216 13.6528 14.1287 13.6528C14.5931 13.0026 14.9646 12.2596 15.429 11.6095C15.6148 11.3309 15.9863 11.1451 16.2649 10.9594C17.1937 10.1235 18.2153 9.38047 19.5156 9.38047C21.3731 9.38047 22.859 8.45171 24.345 7.52296C24.6237 7.33721 24.9023 7.15147 25.1809 7.24434C26.2026 7.43009 26.6669 6.77998 27.1313 6.03697C28.1529 4.36522 29.4532 2.8792 31.3107 2.1362C32.4252 1.67182 33.6326 1.48609 34.9328 2.04334C36.4189 2.6006 38.0906 2.9721 39.6695 3.43647C39.8552 3.52935 40.1339 3.34357 40.3197 3.34357C42.7344 3.15781 45.1491 2.41481 47.5639 1.95043C49.6071 1.48606 51.929 0.928827 54.0652 1.85758C54.3438 1.95046 54.5296 2.22906 54.8082 2.41481C54.9011 2.50769 55.0868 2.5077 55.2726 2.60057C55.4583 2.69345 55.5512 2.78635 55.737 2.9721C55.6441 3.7151 56.2014 3.62221 56.5729 3.71509C57.4087 4.73672 58.2446 5.66548 59.0805 6.68711C59.6377 7.43012 60.4736 7.52298 61.3095 7.89448C63.0741 8.63749 64.9316 8.73035 66.7892 9.10185C67.1607 9.19473 67.625 9.47336 67.9036 9.75199C68.368 10.2164 68.7395 10.7736 69.111 11.238C69.2968 11.4237 69.4825 11.7024 69.6683 11.8881C69.9469 13.0026 70.2255 14.0242 70.5042 15.1388C70.7828 16.1604 70.8756 17.2749 71.2471 18.2965C71.6186 19.3182 72.1759 20.154 73.1976 20.7113C73.2905 20.7113 73.2904 20.9899 73.2904 21.0828C73.4762 21.2686 73.6619 21.3614 73.9405 21.5472C74.7764 22.1973 75.7981 22.7545 76.4482 23.5904C77.377 24.7978 78.1199 26.2838 77.6555 27.8627C77.4698 28.5128 77.7484 29.3487 77.0983 29.906C76.9126 30.0917 76.6339 30.1846 76.3553 30.3703C76.2624 30.3703 76.1696 30.2774 76.0767 30.2774C76.0767 30.3703 76.1695 30.4632 76.1695 30.556C76.1695 30.6489 76.2624 30.7418 76.2624 30.8347C76.2624 30.8347 76.2624 30.8347 76.3553 30.8347C76.3553 30.8347 76.3553 30.8347 76.3553 30.7418C75.055 32.7851 76.2624 34.7355 76.6339 36.6859C76.3553 36.7787 76.2624 36.9644 76.2624 37.0573ZM14.7789 26.841C14.8718 26.6553 15.0575 26.4696 15.0575 26.4696C14.9646 26.2838 14.8718 26.0981 14.6861 26.0052C14.5932 26.0981 14.4074 26.2838 14.4074 26.3767C14.4074 26.3767 14.5932 26.5624 14.7789 26.841ZM9.85649 36.5929C9.57786 36.4072 9.48501 36.3143 9.29926 36.3143C9.20638 36.3143 9.11346 36.5001 9.02059 36.6859C9.11346 36.7787 9.29924 36.8716 9.39211 36.8716C9.48499 36.8716 9.67074 36.6858 9.85649 36.5929ZM76.2624 24.6121C76.0767 24.4263 75.9837 24.3334 75.8909 24.1477C75.798 24.2406 75.6123 24.3334 75.6123 24.4263C75.6123 24.5192 75.7051 24.7049 75.8909 24.7049C75.9837 24.7978 76.1695 24.7049 76.2624 24.6121ZM74.5907 27.7698C74.6836 27.4912 74.7764 27.3983 74.7764 27.3054C74.7764 27.3054 74.6836 27.2126 74.5907 27.2126C74.4978 27.3054 74.4049 27.3054 74.2192 27.3983C74.4049 27.3983 74.405 27.4912 74.5907 27.7698ZM13.3858 32.1349C13.3858 32.1349 13.4787 32.1349 13.3858 32.1349C13.4787 32.1349 13.4787 32.1349 13.3858 32.1349C13.4787 32.1349 13.3858 32.1349 13.3858 32.1349ZM52.765 3.80794C52.765 3.80794 52.765 3.90082 52.765 3.80794C52.765 3.90082 52.765 3.90082 52.765 3.80794C52.8579 3.90082 52.8579 3.80794 52.765 3.80794ZM21.4659 11.981C21.4659 11.981 21.4659 12.0739 21.5588 12.0739C21.5588 12.0739 21.6517 12.0738 21.6517 11.981C21.5589 11.981 21.5588 11.8881 21.4659 11.981C21.5588 11.8881 21.4659 11.8881 21.4659 11.981Z" fill="#0E0D0D"/>
<path d="M16.7305 54.0534C17.102 53.9606 17.5664 53.8677 17.9379 53.8677C18.6809 53.9605 19.331 54.0534 20.074 54.1463C19.9811 54.9822 20.5384 55.9109 21.2814 56.0966C22.1173 56.3753 22.8602 56.6539 23.6961 56.9325C24.3463 57.1183 24.9963 57.304 25.7393 57.3969C26.2037 57.4898 26.5752 57.3969 27.0396 57.4898C28.0612 57.5827 28.9901 57.6755 30.0117 57.8613C30.9405 58.0471 31.9621 58.4186 32.8908 58.3257C33.8196 58.3257 34.3768 58.8829 35.2127 58.9758C36.2343 59.1616 37.2559 59.4402 38.0918 59.9974C38.9277 60.5547 39.5778 61.3905 40.3208 62.1335C40.8781 62.6908 41.4354 63.4338 42.0855 63.5267C42.9214 63.6196 43.7572 63.2481 44.5931 62.8766C45.7076 62.4122 46.7292 61.7621 47.8437 61.2977C48.9582 60.8333 50.0727 60.276 51.1872 60.276C52.3946 60.276 53.1376 59.1615 54.4379 59.3473C55.7381 59.4402 57.1313 59.4402 58.4315 59.4402C58.9888 59.4402 59.546 59.3473 60.0104 59.2544C60.8463 59.1616 61.4965 58.6043 62.0537 57.9542C62.2395 57.6755 62.6109 57.5827 62.7966 57.3041C63.1681 56.5611 63.4468 55.7252 63.9112 55.075C64.6542 54.1463 64.4684 53.1247 64.9328 52.1959C66.0473 52.2888 67.069 52.2888 68.1835 52.3816C67.5333 53.589 67.9977 55.1679 66.8832 56.1896C67.1618 57.0254 66.5117 57.5827 66.0473 58.1399C65.5829 58.79 65.1185 59.4402 64.6542 60.1832C64.5613 60.2761 64.5613 60.3689 64.4684 60.3689C63.0753 61.0191 62.1465 62.4122 60.4748 62.5051C59.7318 62.5979 58.8031 63.1552 58.3387 62.7837C57.5957 62.3193 57.2241 62.8766 56.7597 62.8766C53.3234 62.7837 54.345 62.5979 50.8157 63.8982C50.6299 64.084 49.9799 63.341 50.1656 64.2697V64.3626C49.3297 64.2697 48.5867 64.7341 47.9366 65.1985C47.0078 65.8486 45.8933 66.3129 44.7788 66.7773C44.5002 66.9631 44.0358 66.8702 43.6643 66.8702C43.4786 66.9631 43.2929 67.056 43.1071 67.1488H43.0143C42.6428 67.2417 42.364 67.2417 41.9925 67.3346C41.8068 67.3346 41.5282 67.3346 41.3425 67.3346C41.1567 67.1489 41.0638 67.056 40.8781 66.8702C40.6923 66.6845 40.4137 66.5916 40.228 66.4058C40.0422 66.4058 39.9494 66.4058 39.7636 66.4058C38.742 66.313 38.4634 65.4771 37.9061 64.827C37.7204 64.6412 37.5346 64.4555 37.4417 64.2697C37.1631 63.341 36.1415 63.5267 35.6771 62.7837C35.5842 62.6908 35.2126 62.7837 35.0269 62.7837C34.7483 62.6908 35.2127 61.0191 34.2839 62.5051L34.0053 62.4122C34.0053 61.5763 33.541 62.3193 33.2623 62.2265C33.1695 62.1336 32.9837 61.9478 32.8908 61.9478C31.4048 61.7621 29.9188 61.6692 28.4327 61.5763C27.3182 61.4834 26.2038 61.3906 25.0893 61.2977C24.8106 61.2977 24.532 61.2048 24.3462 61.1119C23.9747 61.0191 23.5104 60.9262 23.1389 60.7404C22.7674 60.6475 22.3958 60.4618 22.0243 60.3689C21.2813 60.0903 20.5384 59.8117 19.7954 59.533C19.7025 59.533 19.6096 59.3473 19.5167 59.3473C19.5167 59.1615 19.6096 59.0687 19.6096 58.8829C19.5167 58.9758 19.4239 59.0687 19.331 59.1616C18.9595 58.883 18.588 58.6972 18.2165 58.4185C18.0307 58.3257 17.8449 58.0471 17.8449 58.0471C18.4951 57.2112 17.2877 57.0254 17.1948 56.3753C17.0091 55.6323 16.9162 54.8893 16.7305 54.0534ZM19.2381 57.5827C19.3309 57.4898 19.4239 57.3969 19.4239 57.2112C19.4239 57.1183 19.3309 57.0254 19.2381 57.0254C19.1452 57.0254 19.0524 57.1183 18.8666 57.2112C18.9595 57.3969 19.0523 57.3969 19.2381 57.5827ZM42.3641 65.2913C42.2712 65.3842 42.1784 65.4771 42.1784 65.4771C42.2712 65.6628 42.2712 65.8486 42.3641 66.0343C42.4569 65.9414 42.5499 65.9414 42.5499 65.8486C42.5499 65.7557 42.4569 65.57 42.3641 65.2913ZM20.7242 58.8829C20.6313 59.0687 20.5384 59.1616 20.4455 59.2544C20.4455 59.2544 20.5383 59.3473 20.5383 59.4402C20.6312 59.3473 20.7241 59.2545 20.817 59.1616C20.9099 59.0687 20.817 58.9758 20.7242 58.8829ZM19.331 54.8893C19.2381 54.9822 19.2381 55.075 19.1452 55.075C19.2381 55.1679 19.331 55.2608 19.5167 55.2608C19.5167 55.2608 19.6096 55.1679 19.7024 55.1679C19.5167 55.075 19.4239 55.075 19.331 54.8893ZM51.5587 61.2048C51.6516 61.2977 51.7445 61.2977 51.8374 61.2977L51.9303 61.1119C51.8374 61.0191 51.7445 61.0191 51.6516 60.9262C51.6516 61.0191 51.6516 61.1119 51.5587 61.2048Z" fill="#0E0D0D"/>
<path d="M10.6947 20.9898C10.7876 22.0114 10.9734 22.9402 10.9734 23.9618C10.9734 24.4262 10.7876 24.8906 10.6019 25.3549C10.1375 27.0267 9.85883 28.6985 8.37283 29.7201C8.18708 29.9058 7.81555 29.9058 7.53693 29.8129C7.44405 29.8129 7.35122 29.4415 7.35122 29.2557C7.25835 28.327 7.81557 27.4911 7.90845 26.7481C8.18708 25.1692 8.83716 23.5903 9.02291 22.0114C9.11579 21.4542 9.30154 20.8969 9.48729 20.3396C9.76591 20.2468 10.0446 20.2468 10.3232 20.1539C10.5089 20.4326 10.6018 20.7111 10.6947 20.9898ZM10.0446 25.8193C9.95175 25.9122 9.85883 26.0051 9.76596 26.0051C9.85883 26.0979 9.95173 26.2837 10.1375 26.2837C10.2304 26.2837 10.3232 26.2837 10.416 26.1908C10.3232 26.1908 10.2304 26.0051 10.0446 25.8193ZM8.18712 29.7201C8.09425 29.6272 8.00133 29.5343 7.90845 29.5343C7.90845 29.5343 7.81562 29.6272 7.72274 29.6272C7.81562 29.7201 7.90845 29.813 7.90845 29.9058C8.00133 29.9058 8.09425 29.813 8.18712 29.7201Z" fill="#101010"/>
<path d="M64.284 5.57252C63.8196 5.57252 63.3553 5.57249 62.8909 5.47961C62.6123 5.38674 62.3337 5.29388 62.0551 5.201C60.9406 4.92237 59.083 2.97198 59.083 1.7646C59.083 1.3931 59.3617 1.02164 59.4545 0.650139C59.5474 0.650139 59.7332 0.650105 59.7332 0.55723C59.919 0.371479 60.0118 0 60.1976 0C60.3833 0 60.7548 0.0928641 60.9405 0.278615C61.7764 1.11449 62.4265 2.04326 63.3553 2.78626C63.9125 3.25064 64.5626 3.52925 65.2128 3.99363C65.5843 4.27226 65.8629 4.55091 66.1415 4.82953C65.9558 4.92241 65.8629 5.01524 65.6771 5.01524C65.3985 5.10811 65.12 5.29389 64.8414 5.38676C64.7485 5.29389 64.5627 5.29388 64.4698 5.201C64.377 5.201 64.3769 5.201 64.284 5.201L64.1912 5.10815V5.201C64.284 5.201 64.2841 5.201 64.377 5.201C64.2841 5.38675 64.284 5.47965 64.284 5.57252Z" fill="#0E0E0E"/>
<path d="M16.0804 5.20095C16.1733 5.0152 16.2661 4.64369 16.359 4.55081C18.0307 3.52918 19.7025 2.60047 21.7458 2.5076C22.2102 2.5076 22.303 2.69335 22.0244 2.97198C21.0956 3.80785 20.817 5.38673 19.2381 5.57248H19.1452C19.0524 5.8511 18.9596 6.03684 18.8667 6.31547L18.7737 6.22262C18.588 6.31549 18.4022 6.50121 18.2165 6.59408C18.1236 6.59408 18.0308 6.68699 18.0308 6.68699C17.9379 6.77987 17.9378 6.87273 17.845 6.96561H17.9379V6.8727C17.8451 6.77982 17.6593 6.59408 17.6593 6.59408C16.359 7.15134 15.8946 6.87272 15.8018 5.38671C15.8018 5.47959 15.8946 5.57245 15.8946 5.66533C15.9875 5.57245 16.0804 5.3867 16.0804 5.20095ZM18.4952 5.01519C18.3094 5.10806 18.3094 5.20099 18.2165 5.29386C18.4022 5.47961 18.588 5.66534 18.7737 5.85109L18.9595 5.66533C18.8667 5.47958 18.6809 5.29382 18.4952 5.01519Z" fill="#101010"/>
<path d="M76.0772 19.318C75.7986 19.5967 75.52 20.061 75.1485 20.061C74.5912 20.061 73.7553 20.1539 73.4767 19.4109C73.198 18.6679 73.0123 17.9249 73.0123 17.089C72.9194 16.4389 74.034 15.9745 74.6841 16.2531C75.1485 16.4389 75.7057 16.5318 75.8914 16.9033C76.17 17.4605 76.1701 18.2035 76.2629 18.8536C76.2629 18.9465 76.0772 19.0394 75.9844 19.1323C75.7986 19.2251 75.6128 19.318 75.427 19.4109C75.6128 19.4109 75.7986 19.318 76.0772 19.318Z" fill="#101010"/>
<path d="M74.6846 9.10171C74.6846 9.00884 74.6847 8.91597 74.5918 8.8231C74.6847 8.4516 74.6846 7.98723 74.7775 7.61573C75.2419 7.3371 75.7063 6.87268 76.1706 6.87268C76.8208 6.87268 77.2851 7.24423 77.5638 8.08011C77.8424 9.19461 77.5637 9.75185 76.7279 10.2162C76.3564 10.402 75.892 10.6806 75.6134 10.0305C75.5205 9.93759 75.3348 9.8447 75.2419 9.8447C74.9633 9.56608 74.8704 9.28746 74.6846 9.10171Z" fill="#101010"/>
<path d="M33.168 62.2266C33.3537 62.3195 33.8181 61.5765 33.911 62.4123L34.1897 62.5052C35.1184 61.0192 34.654 62.7838 34.9326 62.7838C34.1896 62.8767 33.6323 62.8767 33.168 62.2266Z" fill="#FAFAFA"/>
<path d="M40.0414 66.4988C40.2272 66.5917 40.5059 66.7774 40.6916 66.9632C40.8774 67.056 40.9703 67.2418 41.156 67.4275C40.5059 67.4275 39.9485 67.2418 39.6699 66.5917C39.7628 66.4988 39.9486 66.4988 40.0414 66.4988Z" fill="#5D5D5D"/>
<path d="M8.46529 53.3104C8.74392 53.589 9.02255 53.8677 9.39405 54.1463C8.74392 54.1463 8.37242 53.9605 8.46529 53.3104Z" fill="#FAFAFA"/>
<path d="M56.2934 3.62214C55.9219 3.52927 55.3647 3.62215 55.4575 2.87915C56.1077 2.6934 56.1077 3.25064 56.2934 3.62214Z" fill="#5D5D5D"/>
<path d="M10.4149 20.1539C10.1363 20.2468 9.85773 20.2468 9.5791 20.3396C9.67198 20.1539 9.76478 19.9682 9.85766 19.6895C10.0434 19.8753 10.2291 20.061 10.4149 20.1539Z" fill="#5D5D5D"/>
<path d="M74.7771 7.52289C74.6842 7.89439 74.6843 8.35876 74.5914 8.73026C74.127 8.26588 74.4985 7.89439 74.7771 7.52289Z" fill="#5D5D5D"/>
<path d="M9.2998 54.1464C9.57843 54.2393 9.85708 54.2393 10.1357 54.3322C10.0428 54.4251 10.0428 54.4251 9.94989 54.5179C9.85701 54.3322 9.2998 54.7966 9.2998 54.1464Z" fill="#FAFAFA"/>
<path d="M10.6948 20.9898C10.6019 20.7111 10.509 20.4326 10.3232 20.1539C10.509 20.4326 10.6019 20.7111 10.6948 20.9898Z" fill="#5D5D5D"/>
<path d="M65.6748 5.20123C65.8609 5.1082 65.9539 5.01517 66.1399 5.01517C66.1399 5.20121 66.233 5.38726 66.233 5.48028C65.954 5.38726 65.7678 5.29425 65.6748 5.20123Z" fill="#5D5D5D"/>
<path d="M69.2975 11.8881C69.1117 11.7023 68.926 11.4237 68.7402 11.2379C69.2046 11.2379 69.3903 11.4237 69.2975 11.8881Z" fill="#5D5D5D"/>
<path d="M74.6826 9.10184C74.8684 9.28759 75.0541 9.56623 75.2398 9.75198C74.9612 9.56623 74.8684 9.28759 74.6826 9.10184Z" fill="#5D5D5D"/>
<path d="M73.57 21.547C73.3843 21.3613 73.1985 21.2684 72.9199 21.0827C73.1057 21.1755 73.6629 20.9898 73.57 21.547Z" fill="#5D5D5D"/>
<path d="M49.8865 64.2699C49.7008 63.3411 50.351 64.0841 50.5367 63.8983C50.351 63.9912 50.1652 64.177 49.8865 64.2699Z" fill="#5D5D5D"/>
<path d="M62.0537 5.29385C62.3323 5.38673 62.6109 5.47959 62.8895 5.57247C62.6109 5.57247 62.3323 5.57243 62.0537 5.47956C62.0537 5.38668 62.0537 5.38673 62.0537 5.29385Z" fill="#5D5D5D"/>
<path d="M64.2812 5.57291C64.3743 5.47989 64.3743 5.38688 64.4674 5.29385C64.5604 5.38688 64.7465 5.38683 64.8395 5.47985C64.6534 5.57288 64.4673 5.57291 64.2812 5.57291Z" fill="#101010"/>
<path d="M76.077 19.3181C75.8912 19.3181 75.6125 19.4109 75.4268 19.4109C75.6125 19.3181 75.7984 19.2252 75.9841 19.1323C75.9841 19.2252 76.077 19.3181 76.077 19.3181Z" fill="#FAFAFA"/>
<path d="M42.8291 67.1494C43.0151 67.0563 43.2012 66.9633 43.3872 66.8703C43.2012 66.9633 43.0151 67.0563 42.8291 67.1494Z" fill="#5D5D5D"/>
<path d="M10.0439 54.4252C10.137 54.3322 10.1369 54.3322 10.2299 54.2391C10.1369 54.3322 10.137 54.4252 10.0439 54.4252Z" fill="#FB5646"/>
<path d="M69.7615 21.7328C69.8543 22.8473 70.9688 23.2189 71.619 23.869C72.0833 24.3334 72.7335 24.5191 73.1979 24.9835C73.6623 25.4478 74.3124 25.8194 74.1267 26.6553C73.9409 27.3054 73.9409 27.9555 73.3836 28.6056C72.9193 29.07 72.8264 30.0916 72.4549 30.7418C72.362 30.8346 72.4549 31.1133 72.4549 31.2061C72.4549 31.5776 72.5477 31.8563 72.1762 32.2278C71.8976 32.5064 71.8976 33.528 72.1762 33.8066C72.7335 34.271 72.5478 34.9211 72.7335 35.3855C73.0122 36.1285 73.1979 36.9644 73.4765 37.8003C73.5694 38.5433 73.6623 39.2863 73.7551 40.0293C73.7551 40.215 73.7551 40.4937 73.7551 40.6794C72.6406 41.5153 71.5261 41.9797 70.133 41.5153C69.4829 41.3296 68.647 41.3296 67.904 41.4224C67.161 41.4224 66.4179 41.5153 65.6749 41.6082C65.7678 41.2367 65.9536 40.8652 66.0465 40.4937C66.3251 39.7507 66.6038 39.0077 66.6966 38.2647C66.8824 37.3359 66.9752 36.4072 67.0681 35.5713C67.2538 34.3639 67.5324 33.1565 67.5324 32.042C67.4396 30.9275 67.4396 29.813 67.3467 28.6056C67.2539 28.5128 67.161 28.4199 67.161 28.327C67.161 28.2341 67.3467 28.0484 67.3467 28.0484C66.418 27.3054 66.7895 26.098 66.418 25.1692C65.675 23.5903 65.2106 21.8257 64.1889 20.3397C63.4459 19.2252 62.6101 18.2965 61.7742 17.3677C61.6813 17.2749 61.5884 17.0891 61.4955 16.9962C61.4027 16.9033 61.3098 16.8105 61.217 16.7176C60.8455 16.3461 60.3811 16.0674 60.0095 15.6959C59.638 15.4173 59.1736 15.0458 58.7093 14.7672C58.5235 14.6743 58.245 14.7672 57.9663 14.7672C58.0592 14.9529 58.0592 15.2316 58.152 15.4173C58.3378 15.7888 58.6165 16.1603 58.8951 16.5318C58.988 16.7176 58.9879 16.8105 59.0808 16.9962C59.2665 17.0891 59.3594 17.0891 59.5452 17.182C59.638 17.182 59.6381 17.182 59.731 17.182C60.1954 17.925 60.5668 18.6679 61.0312 19.4109C61.4027 19.9682 61.5885 20.7112 62.0529 21.0827C62.8888 21.5471 62.9816 22.1972 63.0745 23.0331C63.0745 23.3117 63.446 23.4975 63.5389 23.7761C63.5389 23.7761 63.5389 23.869 63.5389 23.9619C63.5389 24.2405 63.5388 24.5191 63.6317 24.7978C63.6317 24.8906 63.8175 24.9835 63.9104 25.1692C64.189 26.1909 64.3747 27.3054 65.0248 28.2341C65.1177 28.327 65.0248 28.5127 65.0248 28.6985C65.0248 28.8842 64.8391 28.9771 64.8391 29.1629C64.932 30.7417 65.4892 32.3207 64.932 33.8995C64.8391 34.0853 64.932 34.271 64.932 34.4568C64.8391 36.4072 64.8391 37.6145 63.6317 39.3792C63.2602 39.9364 63.1673 40.6794 62.8887 41.3296C62.1457 42.0726 61.217 41.6082 60.3811 41.7939C58.9879 42.0726 57.5948 42.2583 56.2017 41.9797C55.2729 41.794 54.3442 41.7939 53.4154 41.8868C52.0223 41.9797 50.6292 42.0726 49.236 42.0726C48.2144 42.1654 47.0999 42.1654 46.0782 42.1654C45.4281 42.1654 44.8709 41.7939 44.2207 41.7939C43.7564 41.7939 43.1991 41.9797 42.7347 41.9797C41.7131 41.9797 40.6914 41.9797 39.6698 41.9797C39.2054 41.9797 38.834 42.1654 38.3696 42.1654C36.605 42.1654 34.7475 42.0726 32.9828 42.0726C31.3111 42.0726 29.6393 42.1654 27.9675 42.1654C27.5032 42.1654 27.0388 42.0725 26.4816 42.1654C26.2958 42.1654 26.1101 42.2583 25.9243 42.3512C25.8314 42.3512 25.7385 42.4441 25.6456 42.4441C24.8098 42.2583 24.0668 41.9797 23.2309 41.7939C22.8594 40.8652 22.6737 39.7507 21.8378 39.1005C21.7449 39.1005 21.7449 39.0077 21.7449 38.9148C22.1164 37.6145 21.4663 36.4072 21.2806 35.1069C21.3734 34.9212 22.0236 34.6425 21.2806 34.4568C21.2806 34.3639 21.2806 34.3639 21.2806 34.271C21.4663 33.2494 21.1876 32.3207 21.4663 31.299C21.5591 31.0204 21.4663 30.4631 21.6521 29.9988C22.2093 28.2341 22.6737 26.4695 23.2309 24.7978C23.4167 24.1476 23.9739 23.6832 24.3454 23.0331C24.5311 22.6616 24.4383 22.1972 24.7169 21.9186C25.2741 21.2685 26.0172 20.7112 26.5744 20.0611C26.853 19.6896 27.0388 19.2252 27.4103 18.8537C28.2462 18.0178 29.175 17.1819 30.1037 16.3461C30.2895 16.1603 30.7539 16.3461 30.9396 16.1603C31.7755 15.6031 32.7042 15.0458 33.5401 14.4886C33.7258 14.3957 33.9115 14.3028 34.0973 14.2099C34.5617 13.9313 35.119 13.7456 35.5834 13.467C35.6763 13.467 35.8619 13.4669 35.9548 13.374C36.0477 13.374 36.1406 13.2812 36.3263 13.2812C36.4192 13.2812 36.605 13.2812 36.6978 13.2812C36.7907 13.1883 36.9765 13.1883 37.0694 13.0954C38.1839 12.6311 41.1558 12.0738 42.4561 12.0738C43.6635 12.0738 44.8709 11.9809 46.0782 11.9809C46.264 11.9809 46.4497 11.7952 46.6355 11.7023C47.007 12.2595 47.6572 12.1667 48.2144 12.1667C48.493 12.2595 48.7716 12.3524 48.9574 12.3524C50.1647 12.7239 51.465 13.0025 52.6724 13.374C52.951 13.4669 53.1368 13.5598 53.4154 13.6527C53.5083 13.6527 53.6012 13.6527 53.7869 13.6527C54.2513 14.1171 54.6228 13.6527 54.7157 13.374C54.8086 13.0025 55.3658 12.5382 54.6228 12.2596C54.53 12.1667 54.5299 12.1667 54.437 12.0738C54.2513 11.8881 54.1584 11.7023 53.9726 11.5165C53.8798 11.4237 53.9727 11.3308 53.8798 11.2379C53.7869 11.3308 53.6941 11.3308 53.6941 11.4237C53.6012 11.5166 53.6011 11.7023 53.6011 11.7952C53.5082 11.7952 53.4155 11.7952 53.2297 11.7952V11.7023C53.1368 11.7023 53.1368 11.7952 53.0439 11.7952C52.951 11.7023 52.7653 11.5166 52.7653 11.4237C52.8582 11.0522 52.7653 10.9593 52.3938 10.9593C52.1152 10.9593 51.7437 10.9593 51.4651 10.8665C50.6292 10.5878 49.7932 10.1234 48.9574 10.0305C47.2856 9.8448 45.7068 9.47329 44.035 9.84479C42.7348 10.1234 41.3416 10.0305 40.0413 10.1234C39.8556 10.1234 39.6699 10.2163 39.4841 10.3092C39.577 10.402 39.7628 10.5878 39.8556 10.6807C40.32 11.1451 40.32 11.7023 39.8556 11.8881C39.6699 11.9809 39.3912 11.8881 39.1126 11.8881C39.1126 11.6094 39.1126 11.4237 39.1126 11.1451C39.1126 11.0522 39.0197 11.0522 39.0197 10.9593C39.1126 10.8664 39.1126 10.7735 39.2054 10.7735C39.1126 10.6807 39.0198 10.5878 38.9269 10.4949C38.834 10.4949 38.7411 10.4949 38.6482 10.4949C38.3696 10.5878 38.0909 10.5878 37.8123 10.6807C37.6266 10.6807 37.4408 10.7735 37.2551 10.7735C36.9764 10.7735 36.6978 10.7736 36.4192 10.8665C36.3263 10.9593 36.1406 11.0522 36.0478 11.1451C35.862 11.2379 35.6762 11.238 35.4904 11.3308C35.3047 11.4237 35.0261 11.4237 34.8403 11.5165C34.6546 11.6094 34.4689 11.6094 34.2831 11.7023C33.8187 11.888 33.3544 12.1667 32.89 12.3524C32.2398 12.4453 31.6826 12.7239 31.2182 13.2812C31.1253 13.1883 31.1253 13.1883 31.0325 13.0954C30.9396 13.1883 30.9395 13.3741 30.8467 13.467C30.7538 13.5598 30.5681 13.6527 30.4752 13.7456C29.6394 14.3028 28.7106 14.9529 27.7818 15.4173C27.2246 15.6959 27.3175 16.6247 26.3887 16.439C26.3887 16.439 26.3887 16.6247 26.2958 16.6247C26.1101 16.8104 25.8314 16.9962 25.6456 17.2748C25.367 17.5534 25.1813 17.8321 24.9027 18.1107C24.1597 18.9466 23.4167 19.7825 22.7665 20.7112C22.395 21.1756 22.3021 21.9186 21.9306 22.383C21.0948 23.3117 20.6304 24.2405 20.2589 25.355C20.0732 25.9122 20.3517 26.098 20.6304 26.3766C20.166 26.4695 19.7945 26.4695 19.7016 27.0267C19.423 28.8842 18.3085 30.556 18.9587 32.5064L18.8658 32.5993C18.7729 33.3423 18.5871 34.0853 18.5871 34.8283C18.68 36.3143 19.1444 37.7074 19.1444 39.1935C19.1444 39.2863 19.1444 39.3792 19.1444 39.4721C19.5159 40.4008 19.9803 41.2367 20.4447 42.1654C19.3301 42.3512 18.2156 42.7227 17.194 42.5369C15.9866 42.3512 14.965 42.6298 13.8505 42.6298C13.5719 42.1654 13.2004 41.7939 12.9218 41.3296C11.993 39.6578 11.2499 37.986 11.3428 36.0357C11.3428 35.6642 11.5286 35.2927 11.6215 34.9211C11.7144 34.8283 11.7143 34.7354 11.8072 34.5497C11.9001 34.3639 12.0858 34.0853 12.1787 33.8995C12.3645 33.6209 12.6432 33.3423 12.8289 33.0636C13.2933 32.5064 13.6647 31.9492 14.1291 31.299C14.222 31.2062 14.3149 31.1133 14.4077 30.9275C14.6864 30.556 15.0579 30.1845 15.1508 29.7201C15.4294 28.7914 15.5223 27.7698 15.8009 26.7481C15.8938 26.1909 15.9866 25.8194 15.3365 25.5408C15.2436 25.5408 15.1508 25.355 15.2437 25.2621C15.2437 25.1693 15.4293 25.0764 15.5222 25.0764C16.0795 25.4479 15.8937 24.8906 15.8937 24.7978C15.9866 22.5688 15.8009 20.3397 16.0796 18.1107C16.2653 16.8105 16.4511 15.3244 17.4727 14.2099C18.1228 13.4669 18.6801 12.5382 19.7946 12.2596C19.9803 12.2596 20.0732 12.0738 20.2589 12.1667C22.0236 12.4453 23.3238 11.2379 24.7169 10.5878C24.8098 10.5878 24.8098 10.402 24.9027 10.3092C25.2742 10.0305 25.6457 9.8448 26.0172 9.56617C26.4816 9.28755 27.2246 9.38041 27.2246 8.45166C27.2246 7.8944 27.9675 7.33717 28.4319 6.96567C29.5464 6.12979 30.4752 5.01525 31.8684 4.55088C33.0758 4.17938 34.2831 4.45802 35.3976 4.9224C37.1622 5.66541 39.0197 5.85116 40.8772 5.85116C42.2704 5.85116 43.6635 5.57255 45.0566 5.29393C46.5426 5.0153 48.0287 4.45801 49.5147 4.27226C50.4435 4.08651 51.465 3.80787 52.4867 4.0865C53.4154 4.27225 53.8798 4.8295 54.3442 5.47963C54.9943 6.50126 55.5515 7.70866 56.3874 8.63742C56.9446 9.19467 57.5948 10.0305 58.6164 10.1234C59.2665 10.2163 59.9167 10.6807 60.5668 10.8665C61.124 11.0522 61.6813 10.9593 62.2386 11.0522C63.5388 11.4237 64.8391 11.8881 66.0465 12.2596C66.1393 12.2596 66.1393 12.4453 66.1393 12.6311C66.5108 13.7456 66.7895 14.8601 66.7895 16.0675C66.7895 16.2532 66.9752 16.439 66.9752 16.7176C67.0681 16.9962 67.0681 17.3677 67.161 17.6463C67.161 17.7392 67.161 17.9249 67.161 18.0178C67.904 19.3181 68.0897 20.9899 69.2971 22.0115H69.3899C69.6686 21.8257 69.7615 21.8257 69.7615 21.7328ZM59.9167 30.6489C59.9167 30.556 59.8238 30.556 59.8238 30.4631V30.556C59.8238 30.6489 59.9167 30.6489 59.9167 30.6489C59.9167 30.7418 59.8238 30.7418 59.8238 30.8347C59.731 30.8347 59.638 30.8346 59.5452 30.9275C58.6164 30.1845 57.5949 30.2774 56.9447 31.2061C56.9447 30.7418 56.0159 31.299 56.2017 30.556C56.6661 29.3486 56.9447 28.1413 57.1304 26.9339C57.2233 26.3766 57.8735 25.9122 57.502 25.1692C58.245 24.8906 57.3162 24.7049 57.4091 24.2405C57.6877 23.2188 57.6876 22.1044 57.7805 21.0827C57.7805 20.9899 57.6877 20.8041 57.6877 20.7112C57.5948 20.6183 57.5948 20.4326 57.502 20.3397C57.1305 20.3397 56.759 20.2468 56.4804 20.2468C56.4804 20.6183 56.4804 20.8969 56.4804 21.2685C56.1089 21.64 55.5516 22.0115 55.6445 22.6616C55.6445 22.9402 55.5515 23.3117 55.3658 23.5903C54.0655 25.1692 53.6941 27.2125 52.8582 29.07C52.5796 29.7201 52.3938 30.4631 52.1151 31.2061C51.3721 32.785 50.9078 34.4568 51.0935 36.1285C51.0935 36.5929 51.8366 37.1502 52.3938 37.243C52.7653 37.3359 53.2297 36.6858 53.6941 36.3143C53.9727 36.0357 54.2513 35.5713 54.5299 35.2927C54.6228 35.1069 54.6228 34.8283 54.7157 34.6425C55.0872 33.6209 55.4587 32.5993 55.8302 31.5777C55.8302 31.4848 55.923 31.3919 55.923 31.299C56.2016 31.3919 56.5731 31.4848 56.8518 31.5777C56.2945 31.6705 56.2946 32.1349 56.2017 32.5993C56.2017 32.6921 56.4803 32.9708 56.5732 33.0636C56.4803 33.9924 57.3162 35.5713 58.0592 35.8499C58.3378 35.9428 58.6164 35.6641 58.9879 35.6641C60.1024 35.757 60.8455 35.1998 61.1241 34.0853C61.217 33.9924 61.217 33.8995 61.3098 33.7138C61.3098 33.6209 61.3098 33.528 61.3098 33.3423C61.4956 33.1565 62.1457 33.1565 61.6814 32.5993C61.4956 32.4135 62.1457 31.8563 61.4027 31.5777C60.7526 31.3919 60.3811 31.0204 59.9167 30.6489ZM52.5795 22.0115C52.6724 22.0115 52.7653 21.9186 52.7653 21.9186C53.6941 21.9186 53.5083 20.6184 54.3442 20.6184C54.3442 20.154 54.0656 19.5967 54.2513 19.3181C54.7157 18.668 54.1584 18.3893 53.8798 18.0178C53.7869 17.9249 53.787 17.8321 53.6941 17.7392C53.6012 17.5534 53.5083 17.0891 53.4154 17.0891C52.4867 16.9033 51.5579 17.1819 50.722 17.5534C50.6291 17.6463 50.5363 17.8321 50.4435 18.0178C50.1648 18.4822 49.8862 18.9466 49.6076 19.3181C49.236 19.9682 49.236 19.9682 49.7004 20.2468L49.7933 20.4326C49.236 21.2685 50.0719 21.5471 50.4435 22.0115C50.815 22.383 52.208 22.2901 52.5795 22.0115ZM42.7347 26.841C42.4561 27.3982 42.1775 27.9555 41.8988 28.4199C41.8988 28.5127 41.6202 28.5127 41.5273 28.4199C40.9701 28.0484 40.8773 27.3982 40.6915 26.841C40.6915 26.1908 40.0413 26.2838 39.6698 26.0051C39.4841 26.0051 39.2984 26.0051 39.2984 25.9122C38.7411 25.4478 38.2767 25.5408 37.7195 26.0051C37.348 26.2838 36.7907 26.2838 36.3263 26.1909C35.0261 25.9123 33.9116 26.7481 33.3544 27.6769C32.6114 28.9771 32.7042 30.4631 32.6113 31.9491C32.3327 32.5993 32.5185 32.9708 33.2615 33.0636C33.3544 33.528 33.3543 34.0853 33.6329 34.271C34.6545 35.1998 35.9548 35.3855 37.2551 35.1069C37.9981 34.9212 38.9269 34.8283 39.4841 34.0853C39.7627 33.7138 40.2271 33.4351 40.5986 33.0636C41.0629 32.5064 41.4345 31.8563 41.806 31.2061C41.8989 31.1133 41.806 30.9275 41.806 30.7418C41.9917 30.8346 42.1775 30.9275 42.1775 31.1133C42.4561 31.5777 42.6418 32.042 42.9205 32.5064C43.1062 32.6922 43.3849 32.8779 43.5706 33.0636C44.4994 33.8066 45.6138 34.1781 46.6355 33.8066C47.6571 33.4351 48.5859 32.6921 49.6076 32.1349C49.7933 31.9491 49.7933 31.5777 49.9791 31.299C49.9791 31.2062 50.0719 31.1133 50.1648 30.9275C50.3505 30.3703 50.722 29.813 50.722 29.3486C50.6291 28.8842 51.0007 28.327 50.5363 27.7697C50.3506 27.584 50.3506 27.1196 50.0719 26.7481C49.5147 26.1909 49.0503 25.7265 48.4001 25.2621C47.007 24.2405 45.8925 24.1476 44.4994 25.7265C44.2208 25.9123 44.035 26.098 43.7564 26.2837C43.5706 26.3766 43.3849 26.5624 43.292 26.6553C43.1991 26.6553 43.0133 26.6552 42.9205 26.7481C42.549 26.7481 42.6419 26.841 42.7347 26.841ZM29.3607 27.3054C28.4319 27.3982 28.1533 27.9555 27.9675 28.5128C27.596 30.556 27.1317 32.5064 27.3175 34.5497C27.4103 35.0141 27.6889 35.5713 28.0604 35.8499C28.8963 36.5 30.1037 35.6642 30.1966 34.4568C30.2894 33.8066 30.3823 33.0636 30.3823 32.4135C30.3823 31.4847 30.4751 30.6489 30.3823 29.7201C30.3823 29.2558 30.2895 28.6985 30.0109 28.2341C29.918 28.0484 29.5464 27.6769 29.3607 27.3054Z" fill="#FAFAFA"/>
<path d="M64.8387 52.1959C64.3743 53.1247 64.56 54.2392 63.817 55.0751C63.3526 55.7252 63.074 56.5611 62.7025 57.3041C62.5168 57.5827 62.2381 57.7684 61.9595 57.9542C61.4022 58.6043 60.7522 59.1616 59.9163 59.2544C59.359 59.3473 58.8018 59.4402 58.3374 59.4402C57.0372 59.5331 55.644 59.5331 54.3438 59.3473C52.9506 59.2544 52.3005 60.2761 51.0931 60.2761C49.9786 60.2761 48.8641 60.8333 47.7496 61.2977C46.6351 61.7621 45.6135 62.4122 44.499 62.8766C43.6631 63.2481 42.8272 63.6196 41.9913 63.5267C41.3412 63.4338 40.784 62.5979 40.2267 62.1336C39.4837 61.3906 38.8336 60.5547 37.9977 59.9974C37.1618 59.4402 36.1402 59.1616 35.1186 58.9758C34.2827 58.883 33.7255 58.2328 32.7967 58.3257C31.868 58.4186 30.9391 57.9542 29.9175 57.8613C28.9887 57.6756 27.9671 57.5827 26.9455 57.4898C26.4811 57.3969 26.0167 57.4898 25.6452 57.3969C24.9951 57.3041 24.2521 57.1183 23.602 56.9326C22.7661 56.6539 22.0232 56.3753 21.1873 56.0967C20.4443 55.818 19.887 54.9822 19.9799 54.1463C20.4442 53.9605 20.8158 53.6819 21.2801 53.6819C22.859 53.589 24.4379 53.589 26.0168 53.4962C26.1096 53.4962 26.2025 53.4033 26.2025 53.4033C27.4098 54.2392 28.7101 53.0318 29.9175 53.4962C30.1961 53.589 30.7534 53.0318 31.1249 53.5891C31.2178 53.4962 31.2177 53.4962 31.3106 53.4033C31.4964 53.4962 31.6822 53.5891 31.9608 53.5891C32.1466 53.6819 32.3323 53.7748 32.518 53.8677C33.261 54.2392 33.9112 54.6107 34.6542 54.8893C34.84 54.9822 35.0257 54.7036 35.2114 54.7964C35.9544 55.1679 36.6974 55.4466 37.6262 55.5394C38.7407 55.6323 39.8552 56.0967 40.9697 56.0967C41.2483 56.0967 41.6198 56.4682 41.9913 56.1896C42.177 56.0038 42.4557 56.0038 42.7343 56.0038C43.5702 55.8181 44.5918 56.561 45.2419 55.6323C45.2419 55.6323 45.4277 55.7252 45.6134 55.818C46.0778 55.818 46.635 55.911 47.0994 55.911C47.2852 55.911 47.5639 55.7252 47.7496 55.6323C48.8641 55.4465 49.8858 55.3537 51.0003 55.0751C53.0435 54.5178 54.6223 53.1247 56.387 52.1959C57.9658 52.1031 59.5448 51.9173 61.1237 51.9173C61.5881 51.9173 61.9595 52.1959 62.4239 52.1959C63.2597 52.1959 64.0028 52.1959 64.8387 52.1959Z" fill="#FAFAFA"/>
<path d="M38.7419 10.3091C38.8348 10.3091 38.9277 10.3091 39.0206 10.3091C39.1135 10.402 39.2064 10.4949 39.2993 10.5878C39.2064 10.6806 39.2063 10.7735 39.1135 10.7735C39.1135 10.8664 39.2063 10.8664 39.2063 10.9593C39.2063 11.2379 39.2063 11.4236 39.2063 11.7023C38.7419 11.7951 38.2776 12.0738 37.8132 11.9809C37.1631 11.9809 36.9774 12.1667 37.0703 12.8168C36.9774 12.7239 36.7916 12.6311 36.6987 12.5382C36.6987 12.7239 36.6988 12.8168 36.6059 13.0026C36.513 13.0026 36.3272 13.0026 36.2344 13.0026C36.1415 13.0026 36.0486 13.0954 35.8628 13.0954C35.77 13.0954 35.5842 13.0954 35.4913 13.1883C34.5626 12.8168 34.3768 12.9097 34.0053 13.9313C33.8196 14.0242 33.6338 14.117 33.4481 14.2099C32.6122 14.7672 31.7763 15.4173 30.8475 15.8817C30.6618 16.0674 30.1975 15.8817 30.0117 16.0674C29.083 16.9033 28.1542 17.7392 27.3183 18.5751C26.9468 18.9466 26.8539 19.4109 26.4824 19.7824C25.9252 20.4326 25.1822 20.9898 24.6249 21.64C24.3463 21.9186 24.4392 22.383 24.2534 22.7545C23.9748 23.3117 23.4176 23.8689 23.1389 24.5191C22.5817 26.2837 22.0244 28.0484 21.56 29.7201C21.4671 30.1845 21.4672 30.7417 21.3743 31.0203C21.0028 32.042 21.3743 33.0636 21.1886 33.9924C21.0957 33.9924 21.0956 34.0853 21.0028 34.0853L21.0956 34.1781C21.0956 34.3639 21.0956 34.6425 21.0956 34.8283C21.2814 36.1285 21.9315 37.3359 21.56 38.6361C21.56 38.6361 21.653 38.729 21.653 38.8219C22.4888 39.5649 22.6746 40.5866 23.0461 41.5153C22.5817 42.2583 21.4672 42.3512 20.4455 41.8868C19.9812 40.958 19.6096 40.1222 19.1453 39.1934C19.1453 39.1006 19.1453 39.0076 19.1453 38.9148C19.1453 37.4287 18.6809 36.0357 18.588 34.5497C18.4952 33.8067 18.7738 33.0636 18.8667 32.3206L18.9596 32.2278C18.3094 30.2774 19.4239 28.5127 19.7025 26.7481C19.7954 26.1908 20.1669 26.098 20.6312 26.098C20.3526 25.8193 20.167 25.5407 20.2598 25.0764C20.6313 23.9619 21.1885 22.9402 21.9315 22.1043C22.303 21.64 22.3959 20.897 22.7674 20.4326C23.4175 19.5038 24.1606 18.668 24.9036 17.8321V17.9249H24.9965L24.9036 17.8321C25.1822 17.5535 25.3679 17.2748 25.6465 16.9962C25.8323 16.8104 26.111 16.6247 26.2967 16.346C26.3896 16.2532 26.3896 16.1603 26.3896 16.1603C27.2255 16.346 27.2255 15.4173 27.7827 15.1387C28.7115 14.6743 29.5474 14.0242 30.4761 13.4669C30.569 13.3741 30.7547 13.2812 30.8475 13.1883C30.9404 13.0954 31.0333 13.0954 31.2191 13.0026C31.6834 12.4453 32.2407 12.2595 32.8909 12.0738C33.0766 12.0738 33.3552 12.1667 33.5409 12.1667C33.9124 12.0738 34.284 12.0738 34.3768 11.6094C34.5626 11.5165 34.6555 11.4236 34.8412 11.2379C35.027 11.145 35.3056 11.145 35.4913 11.0521C35.6771 10.9593 35.8629 10.9593 36.0486 10.8664C36.1415 10.7736 36.3272 10.6806 36.4201 10.5878C36.6987 10.6806 36.9773 11.0522 37.256 10.4949C37.4417 10.4949 37.6274 10.4021 37.8132 10.4021C38.0918 10.4021 38.4633 10.402 38.7419 10.3091ZM21.4671 38.729C21.4671 38.8219 21.3743 38.9148 21.3743 39.1005C21.4672 39.0076 21.5601 38.9148 21.653 38.8219L21.56 38.729C21.4671 38.6362 21.4671 38.729 21.4671 38.729ZM33.2624 13.4669C33.3553 13.2812 33.4481 13.1883 33.4481 13.0954C33.4481 13.0954 33.4481 13.0025 33.4481 12.9096C33.3552 13.0025 33.2623 13.0025 33.1694 13.0954C33.1694 13.1883 33.2624 13.2812 33.2624 13.4669ZM37.6275 11.2379C37.6275 11.145 37.6275 11.145 37.6275 11.145C37.6275 11.145 37.6275 11.145 37.5346 11.145C37.5346 11.145 37.5346 11.2379 37.6275 11.2379Z" fill="#0E0E0E"/>
<path d="M67.4398 28.7914C67.5327 29.9059 67.5327 31.0205 67.6256 32.2278C67.7185 33.4352 67.347 34.6426 67.1612 35.7571C67.0684 36.6858 66.9755 37.6146 66.7897 38.4504C66.604 39.1934 66.3253 39.9365 66.1395 40.6795C66.0467 41.051 65.861 41.4225 65.7681 41.794C64.7465 42.0726 63.9106 41.4225 63.0747 41.2367C63.3533 40.5866 63.4461 39.8436 63.8176 39.2863C65.025 37.5217 65.025 36.3143 65.1179 34.364C65.1179 34.1782 65.1179 33.9924 65.1179 33.8067C65.5823 32.2278 65.1179 30.6489 65.0251 29.0701C65.0251 28.8843 65.2108 28.7914 65.2108 28.6057C65.2108 28.4199 65.3036 28.2342 65.2108 28.1413C64.5606 27.2125 64.3749 26.1909 64.0963 25.0764C64.0963 24.9835 63.9105 24.8906 63.8176 24.7049C63.7248 24.4263 63.7248 24.1477 63.7248 23.8691C63.7248 23.7762 63.7248 23.7762 63.7248 23.6833C63.539 23.4047 63.2604 23.2189 63.2604 22.9403C63.1675 22.1044 63.0747 21.4543 62.2388 20.9899C61.7744 20.7113 61.4958 19.9683 61.2172 19.3181C60.7528 18.5751 60.3813 17.8321 59.9169 17.0891C59.9169 16.9034 59.9169 16.8105 59.8241 16.6247C59.8241 16.8105 59.7312 16.9034 59.7312 17.0891C59.5455 16.9962 59.4526 16.9963 59.2668 16.9034C59.3597 16.8105 59.4525 16.6247 59.5454 16.5319C59.4525 16.5319 59.2667 16.5319 59.1739 16.439C58.8952 16.0675 58.6167 15.696 58.4309 15.3245C58.3381 15.1388 58.338 14.8601 58.2451 14.6744C58.5237 14.6744 58.8024 14.5815 58.9882 14.6744C59.4525 14.953 59.8241 15.2316 60.2884 15.6031C60.7528 15.8817 61.1243 16.2532 61.4958 16.6247C61.4029 16.6247 61.4029 16.7176 61.3101 16.7176C61.3101 16.7176 61.31 16.7176 61.4029 16.8105C61.4029 16.7176 61.4958 16.7176 61.4958 16.6247C61.5886 16.7176 61.6816 16.8105 61.7744 16.9034C61.8673 16.9963 61.9602 17.182 62.0531 17.2749C62.889 18.2965 63.7248 19.2253 64.4678 20.2469C65.4895 21.7329 65.9539 23.4975 66.6969 25.0764C67.1612 26.0052 66.7897 27.2125 67.6256 27.9555C67.6256 27.9555 67.4398 28.1413 67.4398 28.2342C67.2541 28.6057 67.3469 28.6986 67.4398 28.7914ZM65.2108 25.0764C65.025 25.2622 64.8393 25.4479 64.6535 25.7266C64.7464 25.8194 64.8393 25.9123 64.9322 25.8194C65.2108 25.6337 65.4895 25.4479 65.7681 25.2622C65.6752 25.2622 65.4894 25.1693 65.2108 25.0764Z" fill="#101010"/>
<path d="M56.3882 52.196C54.6235 53.1248 52.9518 54.6108 51.0015 55.0752C49.9798 55.3538 48.8653 55.4466 47.7508 55.6324C47.5651 55.6324 47.2864 55.9111 47.1006 55.9111C46.6362 55.9111 46.079 55.911 45.6146 55.8182C45.5218 55.8182 45.336 55.6324 45.2431 55.6324C44.5001 56.5611 43.5714 55.8182 42.7355 56.0039C42.4569 56.0968 42.1782 56.0968 41.9925 56.1897C41.621 56.4683 41.2495 56.0968 40.9709 56.0968C39.8564 56.0968 38.7419 55.5395 37.6274 55.5395C36.6986 55.5395 35.9556 55.2609 35.2126 54.7965C35.1198 54.7037 34.8412 54.9823 34.6554 54.8894C33.9124 54.6108 33.1694 54.2393 32.5192 53.8678C32.3335 53.7749 32.1477 53.6821 31.962 53.5892C31.962 53.4963 31.8691 53.4034 31.8691 53.3105C32.0549 53.2176 32.3335 53.2177 32.5192 53.1248C32.6121 53.1248 32.7979 53.1248 32.8907 53.1248C33.8195 52.5675 34.8411 53.3105 35.677 52.8461C35.7699 52.7533 36.0485 53.0319 36.2342 53.1248C36.2342 53.4034 36.3271 53.5892 36.3271 53.8678C36.3271 53.8678 36.42 53.8678 36.5129 53.9606C36.5129 53.7749 36.5129 53.4963 36.5129 53.3105C36.5129 53.2176 36.5129 53.1248 36.5129 53.0319C36.9773 53.0319 37.4417 53.1248 37.906 53.1248C38.4633 53.3106 39.0205 53.4034 39.4849 53.5892C40.5994 54.1464 42.0854 53.2176 43.107 54.425C43.107 54.3321 43.1999 54.3321 43.1999 54.2393C43.2928 54.1464 43.3857 53.9607 43.4786 54.0536C44.3144 54.2393 45.1503 54.0535 45.9862 53.7749C46.822 53.4963 47.8437 53.4963 48.7724 53.4963C49.1439 53.4034 49.5154 53.2177 49.8869 53.1248C50.7228 52.9391 51.5587 52.6604 52.3946 52.4747C53.3233 52.2889 54.2521 52.0103 55.1808 51.8245C55.6452 51.8245 56.0167 52.1032 56.3882 52.196ZM44.593 54.9823C44.5001 55.1681 44.5002 55.2609 44.5002 55.3538C44.593 55.4467 44.6859 55.6324 44.7787 55.7253C44.8716 55.6324 44.9646 55.4467 44.9646 55.3538C44.8717 55.3538 44.7788 55.2609 44.593 54.9823ZM38.4633 55.3538C38.4633 55.3538 38.3703 55.4467 38.2775 55.4467C38.3703 55.4467 38.3704 55.5395 38.4633 55.5395C38.5561 55.5395 38.5561 55.4467 38.649 55.3538C38.5561 55.3538 38.5561 55.3538 38.4633 55.3538Z" fill="#101010"/>
<path d="M48.8634 53.5891C47.9347 53.6819 46.9131 53.589 46.0772 53.8677C45.2413 54.1463 44.4983 54.332 43.5696 54.1463C43.4767 54.1463 43.3838 54.2392 43.2909 54.332C43.198 54.4249 43.1981 54.4249 43.1981 54.5178C42.1764 53.4033 40.6904 54.332 39.5759 53.6819C39.1115 53.4033 38.4614 53.3104 37.9971 53.2175C39.4831 52.7532 41.062 52.9389 42.6408 52.846C43.9411 52.7531 45.3342 52.4745 46.6344 52.3816C47.1917 52.2888 47.8418 52.4745 48.4919 52.3816C49.6064 52.103 50.8139 52.5674 51.9284 52.2888C52.1141 52.1959 52.3927 52.4745 52.6713 52.5674C51.8354 52.7531 50.9996 53.0318 50.1637 53.2175C49.5136 52.9389 49.1421 53.2176 48.8634 53.5891Z" fill="#FAFAFA"/>
<path d="M31.8679 53.4034C31.8679 53.4962 31.9607 53.5891 31.9607 53.682C31.775 53.5891 31.5892 53.4962 31.3105 53.4962C31.5892 53.4962 31.775 53.4034 31.8679 53.4034Z" fill="#5D5D5D"/>
<path d="M36.513 53.1247C36.513 53.2176 36.513 53.3104 36.513 53.4033C36.513 53.5891 36.513 53.8677 36.513 54.0534C36.4202 54.0534 36.4201 54.0534 36.3272 53.9605C36.3272 53.6819 36.2344 53.4962 36.2344 53.2175C36.4201 53.2175 36.513 53.2176 36.513 53.1247Z" fill="#5D5D5D"/>
<path d="M32.1477 53.0319C32.1477 53.0319 32.0547 53.0319 32.1477 53.0319C32.0547 53.0319 32.0547 53.0319 32.0547 53.0319C32.0547 53.0319 32.0547 52.9389 32.1477 53.0319C32.0547 52.9389 32.1477 53.0319 32.1477 53.0319Z" fill="#101010"/>
<path d="M14.7797 26.8409C14.594 26.5623 14.4082 26.4694 14.4082 26.2837C14.4082 26.1908 14.594 26.0979 14.6869 25.9121C14.7798 26.0979 14.9654 26.1908 15.0583 26.3765C15.0583 26.4694 14.8726 26.5623 14.7797 26.8409Z" fill="#FAFAFA"/>
<path d="M13.0153 32.9708C12.8296 33.2494 12.551 33.528 12.3652 33.8066C12.551 33.528 12.7367 33.2494 13.0153 32.9708Z" fill="#5D5D5D"/>
<path d="M9.85641 36.5929C9.57778 36.6857 9.48491 36.8715 9.39203 36.7786C9.29916 36.7786 9.11338 36.6857 9.02051 36.5929C9.11338 36.5 9.2063 36.2214 9.29918 36.2214C9.48493 36.3143 9.57778 36.4071 9.85641 36.5929Z" fill="#FAFAFA"/>
<path d="M76.2614 24.612C76.0757 24.7048 75.9828 24.7977 75.8899 24.7977C75.797 24.7049 75.6113 24.6119 75.6113 24.5191C75.6113 24.4262 75.797 24.3333 75.8899 24.2404C76.0756 24.3333 76.1685 24.4262 76.2614 24.612Z" fill="#FAFAFA"/>
<path d="M74.5916 27.7706C74.4056 27.4916 74.3125 27.3986 74.3125 27.3986C74.4055 27.3056 74.4986 27.2125 74.6846 27.2125L74.8706 27.3055C74.7776 27.3985 74.6846 27.4916 74.5916 27.7706Z" fill="#FAFAFA"/>
<path d="M14.4102 13.7458C14.3172 13.8389 14.3172 13.9319 14.2242 14.0249C14.1312 13.8389 14.1311 13.7458 14.0381 13.5598C14.1311 13.6528 14.2242 13.6528 14.4102 13.7458Z" fill="#FDFDFD"/>
<path d="M11.9928 34.4568C11.8997 34.5498 11.8997 34.6428 11.8066 34.8289C11.8066 34.6428 11.8997 34.5498 11.9928 34.4568Z" fill="#5D5D5D"/>
<path d="M75.7991 30.5564C75.7991 30.4634 75.7061 30.3704 75.7061 30.2773C75.7991 30.2773 75.8921 30.3704 75.9852 30.3704C75.8921 30.3704 75.8921 30.4634 75.7991 30.5564Z" fill="#FDFDFD"/>
<path d="M14.3135 13.7456C14.4065 13.7456 14.4065 13.6526 14.4995 13.6526C14.4065 13.6526 14.4065 13.7456 14.3135 13.7456Z" fill="#FDFDFD"/>
<path d="M52.7666 3.80786C52.8596 3.80786 52.8596 3.90088 52.7666 3.80786C52.7666 3.90088 52.7666 3.90088 52.7666 3.80786C52.7666 3.90088 52.7666 3.80786 52.7666 3.80786Z" fill="#FAFAFA"/>
<path d="M21.4678 11.981C21.4678 11.888 21.5608 11.888 21.4678 11.981C21.5608 11.981 21.5608 11.981 21.5608 11.981C21.5608 11.981 21.5608 11.981 21.4678 12.074C21.5608 11.981 21.4678 11.981 21.4678 11.981Z" fill="#FAFAFA"/>
<path d="M69.7637 21.7328C69.8567 21.7328 69.8568 21.8258 69.9498 21.8258C69.8568 21.8258 69.7637 21.8258 69.7637 21.7328Z" fill="#FAFAFA"/>
<path d="M73.4759 37.8932L73.5689 37.8002C73.5689 37.8002 73.5689 37.8002 73.5689 37.8932H73.4759C73.3829 37.8932 73.4759 37.8932 73.4759 37.8932Z" fill="#FAFAFA"/>
<path d="M19.237 57.5836C19.051 57.3975 19.051 57.3045 18.958 57.2115C19.051 57.1185 19.1441 57.0254 19.3301 57.0254L19.5161 57.2115C19.4231 57.3975 19.33 57.4906 19.237 57.5836Z" fill="#FAFAFA"/>
<path d="M42.3625 65.2914C42.4553 65.5701 42.5483 65.7558 42.5483 65.9416C42.5483 65.9416 42.4553 66.0345 42.3625 66.1273C42.2696 65.9416 42.1768 65.7558 42.1768 65.5701C42.2696 65.4772 42.2696 65.3843 42.3625 65.2914Z" fill="#101010"/>
<path d="M20.7244 58.8829C20.8175 58.9759 20.8174 59.069 20.8174 59.069C20.7244 59.162 20.6313 59.255 20.5383 59.348C20.5383 59.255 20.4453 59.255 20.4453 59.162C20.5383 59.069 20.6314 58.9759 20.7244 58.8829Z" fill="#FAFAFA"/>
<path d="M19.3326 54.8893C19.5186 54.9824 19.6116 55.0754 19.7046 55.1684C19.6116 55.2614 19.5186 55.3545 19.5186 55.2615C19.4256 55.2615 19.3325 55.1684 19.1465 55.0754C19.1465 55.0754 19.2396 54.9824 19.3326 54.8893Z" fill="#FAFAFA"/>
<path d="M51.5586 61.2053C51.6516 61.1123 51.6516 61.0193 51.7446 60.9262C51.8376 61.0193 51.9307 61.0193 52.0237 61.1123L51.9307 61.2984C51.7447 61.2984 51.6516 61.2983 51.5586 61.2053Z" fill="#5D5D5D"/>
<path d="M19.2373 59.162C19.3303 59.069 19.4234 58.9759 19.5164 58.8829C19.5164 59.069 19.4234 59.162 19.4234 59.348C19.3304 59.255 19.3303 59.162 19.2373 59.162Z" fill="#FDFDFD"/>
<path d="M10.0433 25.8194C10.1362 26.0051 10.3219 26.098 10.4147 26.2838C10.3219 26.2838 10.229 26.3766 10.1362 26.3766C10.0433 26.2838 9.85752 26.1909 9.76465 26.098C9.85752 26.0051 9.95044 25.9123 10.0433 25.8194Z" fill="#FDFDFD"/>
<path d="M8.18462 29.7205C8.09159 29.8135 7.9985 29.8135 7.9985 29.9065C7.90548 29.8135 7.8125 29.7204 7.8125 29.6274C7.90552 29.6274 7.9985 29.5344 7.9985 29.5344C7.9985 29.6274 8.09159 29.6275 8.18462 29.7205Z" fill="#FDFDFD"/>
<path d="M64.4674 5.29385C64.3743 5.38688 64.3743 5.47989 64.2812 5.57291C64.2812 5.47989 64.2812 5.38688 64.2812 5.29385C64.2812 5.29385 64.3743 5.29385 64.4674 5.29385Z" fill="#FAFAFA"/>
<path d="M64.2827 5.29405C64.1897 5.29405 64.1897 5.29405 64.0967 5.29405V5.20099C64.1897 5.29401 64.1897 5.29405 64.2827 5.29405Z" fill="#FAFAFA"/>
<path d="M18.4937 5.01517C18.6795 5.29379 18.8652 5.47956 19.051 5.66531L18.8653 5.85107C18.6795 5.66532 18.4937 5.47959 18.3079 5.29384C18.215 5.20096 18.308 5.20092 18.4937 5.01517Z" fill="#FAFAFA"/>
<path d="M16.0816 5.20099C16.0816 5.38704 15.9885 5.48006 15.9885 5.66611C15.9885 5.57308 15.8955 5.48007 15.8955 5.38705C15.8955 5.38705 15.9886 5.29401 16.0816 5.20099Z" fill="#FDFDFD"/>
<path d="M32.4248 31.949C32.5177 30.463 32.4247 28.977 33.1677 27.6768C33.725 26.748 34.7467 25.9122 36.1398 26.1908C36.6042 26.2837 37.2543 26.2837 37.533 26.005C38.0902 25.5407 38.5545 25.4478 39.1118 25.9121C39.2047 26.005 39.3904 25.9122 39.4833 26.005C39.1118 27.1195 40.0405 26.748 40.5049 26.8409C40.6907 27.3981 40.7836 28.0483 41.3408 28.4198C41.4337 28.5127 41.7123 28.5127 41.7123 28.4198C41.991 27.8625 42.2696 27.3981 42.5482 26.8409C42.6411 26.748 42.6411 26.6551 42.734 26.5623C42.9197 26.4694 43.1055 26.2837 43.1983 26.1908C43.8485 26.2837 44.5914 26.4694 44.3128 27.3982C44.3128 27.3982 44.4986 27.4911 44.5915 27.5839C44.22 27.9554 44.5915 28.4198 44.4986 28.7913C44.4057 29.5343 45.1488 30.9274 45.7989 31.1132C46.1704 31.2061 47.0062 31.1132 47.0991 31.0203C47.2848 30.1844 47.4706 29.2557 47.2849 28.4198C47.0991 27.1195 46.1703 26.3765 45.0558 26.3765C44.6843 26.1908 44.3129 25.9122 43.9414 25.7264C45.3345 24.1475 46.449 24.2404 47.8421 25.2621C48.4922 25.7264 48.9566 26.1908 49.5139 26.748C49.8854 27.1195 49.8854 27.5839 49.9783 27.7696C50.4427 28.3269 50.164 28.8842 50.164 29.3485C50.2569 29.8129 49.8854 30.4631 49.6068 30.9274C49.6068 31.0203 49.5138 31.1132 49.4209 31.299C49.3281 31.5776 49.3282 32.0419 49.0495 32.1348C48.1208 32.7849 47.1919 33.5279 46.0774 33.8065C45.0558 34.178 43.9414 33.8066 43.0126 33.0636C42.8269 32.8778 42.5482 32.6921 42.3624 32.5063C42.0838 32.0419 41.8981 31.5776 41.6195 31.1132C41.5266 30.9274 41.3408 30.8345 41.248 30.7417C41.248 30.9274 41.3408 31.1132 41.248 31.206C40.8765 31.8562 40.5049 32.4134 40.0405 33.0636C39.7619 33.4351 39.2976 33.7137 38.9261 34.0852C38.3688 34.7353 37.4401 34.9211 36.6971 35.1068C35.3968 35.3854 34.0965 35.1997 33.0749 34.2709C32.7963 33.9923 32.7962 33.4351 32.7034 33.0636C32.7962 32.692 32.6106 32.3205 32.4248 31.949ZM38.0902 28.3269C36.3255 28.3269 35.304 29.5343 35.5826 31.1132C35.7683 32.0419 36.0469 32.1348 37.0686 32.0419C37.3472 32.0419 37.6258 32.2277 37.9045 32.3206C37.9974 32.4134 38.183 32.4134 38.2759 32.5063C38.2759 32.3206 38.2759 32.1348 38.2759 32.0419C37.8115 31.4847 38.2759 31.2061 38.6474 30.9274C38.8332 30.8346 39.1118 30.7417 39.2046 30.6488C39.3904 30.3702 38.9261 28.7913 38.5546 28.5127C38.2759 28.4198 38.1831 28.3269 38.0902 28.3269Z" fill="#0E0D0D"/>
<path d="M57.5962 20.3396C57.6891 20.4325 57.6891 20.6183 57.782 20.7112C57.782 20.804 57.8749 20.9898 57.8749 21.0827C57.782 22.1972 57.782 23.2188 57.5034 24.2404C57.4105 24.6119 58.3393 24.7977 57.5962 25.1692C57.9677 25.8193 57.3176 26.2837 57.2247 26.9338C57.039 28.1412 56.7603 29.3485 56.296 30.5559C56.1102 30.8346 55.9245 31.1132 55.7387 31.3918C55.6459 31.3918 55.5529 31.4847 55.4601 31.4847C55.5529 31.4847 55.553 31.5776 55.6459 31.5776C55.2744 32.5992 54.9028 33.6208 54.5313 34.6425C54.3456 34.7353 54.2527 34.7354 54.0669 34.8282C54.1598 35.014 54.2527 35.1069 54.3456 35.2926C54.067 35.6641 53.8812 36.0356 53.5097 36.3142C53.1382 36.6857 52.5809 37.3358 52.2094 37.243C51.7451 37.1501 51.0021 36.5 50.9093 36.1284C50.7235 34.3638 51.2807 32.7849 51.9309 31.2061C52.2095 30.5559 52.3952 29.8129 52.6738 29.0699C53.4168 27.2124 53.7884 25.1692 55.1815 23.5903C55.3673 23.3116 55.4601 22.9401 55.4601 22.6615C55.4601 21.9185 55.9245 21.6399 56.296 21.2684C56.3888 21.2684 56.4818 21.2684 56.5746 21.3613C56.7604 21.4542 56.8533 21.547 56.9462 21.6399C56.9462 21.4542 57.039 21.1756 56.9462 21.0827C56.8533 20.8969 56.5746 20.8041 56.3888 20.6183C56.9461 20.4326 57.3176 20.3396 57.5962 20.3396ZM52.8596 34.4567C53.1383 34.271 53.324 34.1781 53.4169 34.0852C53.324 33.9924 53.2311 33.8995 53.1382 33.8995C52.9524 33.8995 52.8596 33.9924 52.6738 34.0852C52.6738 34.0852 52.7667 34.271 52.8596 34.4567Z" fill="#0E0E0E"/>
<path d="M37.0693 12.8168C36.9764 12.2595 37.1621 11.9809 37.8122 11.9809C38.2766 11.9809 38.741 11.7951 39.2054 11.7022C39.484 11.7022 39.6698 11.7951 39.9484 11.7022C40.5057 11.5165 40.5057 10.8664 39.9484 10.4949C39.8555 10.402 39.6698 10.2162 39.5769 10.1233C39.7626 10.0305 39.9484 9.93764 40.1341 9.93764C41.4344 9.84477 42.8276 9.9376 44.1278 9.65897C45.7996 9.28747 47.4714 9.75186 49.0503 9.84473C49.8861 9.93761 50.722 10.402 51.5578 10.6806C51.8365 10.7735 52.208 10.7735 52.4866 10.7735C52.8581 10.7735 52.951 10.8664 52.8581 11.2379C52.8581 11.3307 53.0438 11.4236 53.1367 11.6094C53.2296 11.6094 53.2296 11.6094 53.3225 11.6094C53.4154 11.6094 53.5083 11.6094 53.694 11.6094C53.9726 11.7023 53.9726 12.4453 54.5298 11.888C54.6227 11.9809 54.6228 11.9809 54.7156 12.0738C54.437 12.5381 53.694 12.7239 53.8797 13.4669C53.7869 13.4669 53.694 13.4669 53.5082 13.4669C53.2296 13.374 53.0439 13.2812 52.7653 13.1883C51.5579 12.8168 50.2576 12.5381 49.0503 12.1666C48.8645 11.9809 48.6787 11.5165 48.3072 11.9809C47.75 11.9809 47.0999 12.0737 46.7284 11.5165L46.8212 11.6094C46.8212 11.6094 46.8212 11.6094 46.8212 11.5165C46.7283 11.5165 46.7283 11.5165 46.6354 11.4236C46.4497 11.5165 46.2639 11.7022 46.0782 11.7022C44.8708 11.7951 43.6634 11.7951 42.456 11.7951C41.1558 11.7951 38.1838 12.3524 37.0693 12.8168Z" fill="#101010"/>
<path d="M29.3616 27.3053C29.6403 27.6768 30.0118 27.9554 30.1047 28.4198C30.2904 28.8842 30.3833 29.4414 30.4762 29.9058C30.5691 30.8346 30.4762 31.6704 30.4762 32.5992C30.4762 33.2493 30.2904 33.9923 30.2904 34.6424C30.1975 35.8498 28.8973 36.6857 28.1543 36.0356C27.7828 35.757 27.5041 35.1997 27.4113 34.7353C27.1326 32.692 27.597 30.6488 28.0614 28.6984C28.0614 27.9554 28.34 27.3981 29.3616 27.3053Z" fill="#101010"/>
<path d="M57.0387 31.2061C57.6888 30.2773 58.7104 30.1845 59.6391 30.9275C59.6391 31.0203 59.6392 31.0204 59.7321 31.1132C59.7321 31.1132 59.7321 31.1132 59.8249 31.2061C59.8249 31.1132 59.7321 31.1132 59.7321 31.0203C59.825 31.0203 59.9178 31.0203 60.0106 30.9275C60.1964 31.2061 60.4751 31.4847 60.6608 31.7634C60.8466 31.9491 60.9395 32.042 61.1252 32.2277C61.0323 32.5064 60.9394 32.785 60.9394 33.0636C60.9394 33.1565 61.1252 33.3422 61.2181 33.528C61.2181 33.6208 61.2181 33.7137 61.2181 33.8995C61.1252 33.9924 61.1251 34.0852 61.0322 34.271C60.7536 35.3855 60.1036 35.9427 58.8962 35.8499C58.6176 35.8499 58.2461 36.1285 57.9674 36.0356C57.2244 35.757 56.4814 34.1781 56.4814 33.2494C56.6672 32.8779 56.8529 32.4135 56.9458 32.042C56.9458 31.9491 56.8529 31.8562 56.76 31.7634C56.8529 31.3919 56.9458 31.299 57.0387 31.2061Z" fill="#101010"/>
<path d="M49.7012 19.3181C49.9798 18.8537 50.2584 18.3893 50.5371 18.0178C51.5587 17.6463 52.6732 17.3677 53.7877 17.7392C53.8806 17.8321 53.8805 17.925 53.9734 18.0178C54.252 18.3893 54.8093 18.668 54.3449 19.3181C54.1592 19.5967 54.3449 20.154 54.4378 20.6184C53.6019 20.7113 53.7877 22.0115 52.859 21.9186C52.7661 21.9186 52.6731 22.0115 52.6731 22.0115C52.3945 21.9186 52.023 21.8258 51.7444 21.8258C50.7228 21.9186 50.5371 21.3614 50.4442 20.5255C50.1656 20.154 50.5371 19.411 49.7012 19.3181Z" fill="#0E0D0D"/>
<path d="M49.7005 19.3181C50.4435 19.5039 50.1649 20.154 50.2577 20.6184C50.3506 21.4543 50.6293 22.0115 51.558 21.9186C51.8366 21.9186 52.2081 22.0115 52.4868 22.1044C52.1153 22.383 50.8151 22.383 50.4435 22.0115C50.072 21.5471 49.2361 21.2685 49.7934 20.4326C49.7934 20.4326 49.7934 20.2469 49.7005 20.2469C49.329 19.9682 49.329 19.9682 49.7005 19.3181Z" fill="#5D5D5D"/>
<path d="M53.7858 17.6463C52.6713 17.2748 51.5568 17.5534 50.5352 17.925C50.628 17.7392 50.628 17.5534 50.8137 17.4606C51.6496 17.0891 52.5784 16.8104 53.5071 16.9962C53.6929 17.0891 53.6929 17.4606 53.7858 17.6463Z" fill="#5D5D5D"/>
<path d="M44.7779 27.584C44.685 27.4911 44.4993 27.4911 44.4993 27.3982C44.6851 26.4695 44.0349 26.2837 43.3848 26.1909C43.6634 26.0051 43.8492 25.8193 44.1278 25.6336C44.4993 25.8193 44.8708 26.098 45.2423 26.2837C45.1494 26.3766 45.0566 26.4695 44.9637 26.6552C44.8708 27.0267 44.8708 27.3054 44.7779 27.584Z" fill="#5D5D5D"/>
<path d="M53.6949 13.374C53.4163 12.631 54.1592 12.4452 54.5307 11.9808C55.2737 12.2595 54.7166 12.8167 54.6237 13.0954C54.5308 13.374 54.1593 13.8383 53.6949 13.374Z" fill="#5D5D5D"/>
<path d="M61.0305 33.4352C60.9376 33.2494 60.752 33.1565 60.752 32.9708C60.752 32.6922 60.8448 32.4135 60.9377 32.1349C61.0305 31.9491 61.0306 31.8563 61.1235 31.6705C61.7736 31.8563 61.2163 32.4135 61.402 32.6922C61.8664 33.2494 61.2163 33.2494 61.0305 33.4352Z" fill="#5D5D5D"/>
<path d="M56.6651 20.5254C56.8509 20.7111 57.1295 20.804 57.2223 20.9898C57.3152 21.1755 57.2223 21.3613 57.2223 21.5471C57.1295 21.4542 56.9437 21.3613 56.8508 21.2684C56.7579 21.1755 56.6651 21.1755 56.5723 21.1755C56.5723 20.804 56.5723 20.5254 56.5723 20.1539C56.9438 20.1539 57.3152 20.2468 57.5939 20.2468C57.3152 20.3397 56.9437 20.4325 56.6651 20.5254C56.6651 20.6183 56.6651 20.6183 56.6651 20.7112C56.6651 20.6183 56.6651 20.5254 56.6651 20.5254Z" fill="#5D5D5D"/>
<path d="M56.7575 31.5776C56.8504 31.6705 57.0362 31.7634 56.9433 31.8563C56.7576 32.2278 56.6647 32.6921 56.4789 33.0636C56.3861 32.8779 56.1074 32.6921 56.1074 32.5992C56.2003 32.1349 56.1074 31.6705 56.7575 31.5776Z" fill="#5D5D5D"/>
<path d="M40.5977 26.9339C40.1333 26.841 39.2975 27.1196 39.5761 26.098C39.8547 26.2837 40.5048 26.1909 40.5977 26.9339Z" fill="#5D5D5D"/>
<path d="M34.4694 11.7022C34.3765 12.1666 34.005 12.1666 33.6335 12.2595C33.4477 12.2595 33.1691 12.2595 32.9834 12.1666C33.4478 11.9808 33.9122 11.7022 34.3765 11.5164C34.3765 11.6093 34.4694 11.6093 34.4694 11.7022Z" fill="#5D5D5D"/>
<path d="M57.0395 31.2062C56.9466 31.299 56.8537 31.4848 56.7608 31.5777C56.4822 31.4848 56.1107 31.3919 55.832 31.2991C56.0178 31.0204 56.2035 30.7418 56.3893 30.4632C56.0178 31.2062 56.9466 30.7418 57.0395 31.2062Z" fill="#5D5D5D"/>
<path d="M60.5671 31.6705C60.3813 31.3919 60.1027 31.1133 59.917 30.8347C59.917 30.7418 60.0098 30.7418 60.0098 30.6489C60.3813 31.0204 60.8458 31.299 61.2173 31.6705C60.9386 31.6705 60.7528 31.6705 60.5671 31.6705Z" fill="#5D5D5D"/>
<path d="M34.0967 13.9314C34.4682 12.9097 34.7469 12.8169 35.5828 13.1884C35.1184 13.467 34.5611 13.7456 34.0967 13.9314Z" fill="#101010"/>
<path d="M54.3457 11.7953C53.8813 12.4454 53.7884 11.6095 53.5098 11.5166C53.5098 11.4237 53.5097 11.238 53.6026 11.1451C53.6026 11.0522 53.7884 10.9594 53.7884 10.9594C53.7884 11.0522 53.7884 11.1451 53.8813 11.238C54.067 11.4237 54.1599 11.6095 54.3457 11.7953Z" fill="#5D5D5D"/>
<path d="M32.4238 31.949C32.6095 32.3205 32.8881 32.6921 33.0739 33.0636C32.3309 32.9707 32.1451 32.5992 32.4238 31.949Z" fill="#5D5D5D"/>
<path d="M21.2793 35.014C21.2793 34.8283 21.2793 34.5496 21.2793 34.3639C22.0223 34.5496 21.3722 34.7354 21.2793 35.014Z" fill="#5D5D5D"/>
<path d="M54.4377 35.2927C54.3449 35.107 54.2521 35.0141 54.1592 34.8283C54.3449 34.7355 54.4378 34.7355 54.6236 34.6426C54.5307 34.8283 54.4377 35.0141 54.4377 35.2927Z" fill="#101010"/>
<path d="M48.2139 11.888C48.5854 11.4236 48.7711 11.888 48.9568 12.0737C48.6782 12.0737 48.3996 11.9808 48.2139 11.888Z" fill="#5D5D5D"/>
<path d="M37.3495 10.5877C37.0708 11.145 36.7923 10.7735 36.5137 10.6806C36.7923 10.6806 37.0708 10.6806 37.3495 10.5877Z" fill="#101010"/>
<path d="M52.6719 13.0954C52.9505 13.1883 53.1363 13.2811 53.4149 13.374C53.1363 13.2811 52.9505 13.1883 52.6719 13.0954Z" fill="#5D5D5D"/>
<path d="M38.742 10.3091C38.4634 10.402 38.1849 10.402 37.9062 10.4949C38.092 10.402 38.4634 10.402 38.742 10.3091Z" fill="#101010"/>
<path d="M36.1431 11.0521C35.957 11.1451 35.771 11.1451 35.585 11.2382C35.771 11.1451 35.957 11.0521 36.1431 11.0521Z" fill="#101010"/>
<path d="M31.3124 13.0956C31.2194 13.1887 31.1265 13.1887 30.9404 13.2817C31.0335 13.1887 31.0334 13.0026 31.1264 12.9096C31.1264 13.0026 31.2194 13.0026 31.3124 13.0956Z" fill="#5D5D5D"/>
<path d="M58.9883 16.5319C59.0813 16.5319 59.2674 16.5318 59.3604 16.6249C59.2674 16.7179 59.1743 16.904 59.0813 16.997C59.0813 16.8109 58.9883 16.7179 58.9883 16.5319Z" fill="#5D5D5D"/>
<path d="M36.6035 13.0033C36.6035 12.8172 36.6035 12.7242 36.6965 12.5382C36.7895 12.6312 36.9756 12.7242 37.0686 12.8172C36.8826 12.9103 36.7896 13.0033 36.6035 13.0033Z" fill="#101010"/>
<path d="M34.469 11.7028C34.469 11.6098 34.469 11.6098 34.376 11.5168C34.562 11.4237 34.748 11.4238 34.9341 11.3307C34.748 11.5168 34.655 11.6098 34.469 11.7028Z" fill="#101010"/>
<path d="M33.542 14.2104C33.728 14.1173 33.9141 14.0243 34.1001 13.9313C33.9141 14.0243 33.728 14.1173 33.542 14.2104Z" fill="#101010"/>
<path d="M42.9218 26.5623C42.8288 26.6554 42.8288 26.7484 42.7358 26.8414C42.6428 26.7484 42.6428 26.6554 42.5498 26.6554C42.6428 26.6554 42.7358 26.5623 42.9218 26.5623Z" fill="#5D5D5D"/>
<path d="M57.7825 21.0834C57.7825 20.9904 57.6895 20.8043 57.6895 20.7113C57.7825 20.8043 57.7825 20.8973 57.7825 21.0834Z" fill="#5D5D5D"/>
<path d="M61.7742 17.4611C61.6812 17.3681 61.5881 17.182 61.4951 17.089C61.5881 17.182 61.6812 17.2751 61.7742 17.4611Z" fill="#5D5D5D"/>
<path d="M35.9541 13.1885C36.0471 13.1885 36.1402 13.0954 36.3262 13.0954C36.1402 13.0954 36.0471 13.0954 35.9541 13.1885Z" fill="#101010"/>
<path d="M60.9404 34.0859C61.0335 33.9929 61.0335 33.8999 61.1265 33.7138C61.0335 33.8999 60.9404 33.9929 60.9404 34.0859Z" fill="#5D5D5D"/>
<path d="M30.9395 13.2812C30.8465 13.3742 30.6604 13.4673 30.5674 13.5603C30.6604 13.4673 30.8465 13.3742 30.9395 13.2812Z" fill="#5D5D5D"/>
<path d="M59.6377 17.1827C59.6377 16.9966 59.7308 16.9036 59.7308 16.7176C59.7308 16.9036 59.7308 16.9966 59.8238 17.1827C59.7308 17.1827 59.6377 17.1827 59.6377 17.1827Z" fill="#5D5D5D"/>
<path d="M61.311 16.7176C61.311 16.8106 61.218 16.8106 61.218 16.9036C61.218 16.9036 61.218 16.9036 61.125 16.8106C61.218 16.8106 61.311 16.8106 61.311 16.7176Z" fill="#5D5D5D"/>
<path d="M39.0205 10.3091C39.1135 10.4022 39.2066 10.4952 39.2996 10.5882C39.2066 10.4952 39.1135 10.4022 39.0205 10.3091Z" fill="#0E0E0E"/>
<path d="M55.6441 31.578C55.5511 31.578 55.551 31.4849 55.458 31.4849C55.551 31.4849 55.6441 31.3919 55.7371 31.3919C55.7371 31.3919 55.6441 31.485 55.6441 31.578Z" fill="#5D5D5D"/>
<path d="M59.6377 30.9276C59.6377 31.0206 59.7308 31.0206 59.7308 31.1136C59.7308 31.1136 59.7307 31.1136 59.6377 31.0206V30.9276Z" fill="#5D5D5D"/>
<path d="M60.0092 30.6492C59.9162 30.6492 59.9163 30.6492 59.8232 30.5562V30.4632C59.9163 30.5562 59.9162 30.6492 60.0092 30.6492C59.9162 30.6492 60.0092 30.6492 60.0092 30.6492Z" fill="#5D5D5D"/>
<path d="M21.1878 34.2712L21.0947 34.1782C21.1877 34.1782 21.1878 34.0852 21.2808 34.0852C21.2808 34.1783 21.2809 34.2712 21.1878 34.2712Z" fill="#5D5D5D"/>
<path d="M39.2073 11.0524C39.2073 10.9593 39.1143 10.9594 39.1143 10.8664C39.1143 10.8664 39.1142 10.9593 39.2073 11.0524Z" fill="#101010"/>
<path d="M53.232 11.5167C53.139 11.5167 53.1389 11.5167 53.0459 11.5167C53.1389 11.5167 53.139 11.4237 53.232 11.4237V11.5167Z" fill="#5D5D5D"/>
<path d="M33.2611 13.4678C33.2611 13.2817 33.168 13.1887 33.168 13.0956C33.168 13.0026 33.3541 13.0026 33.4471 12.9096C33.4471 13.0026 33.5401 13.0026 33.4471 13.0956C33.4471 13.1887 33.3541 13.2817 33.2611 13.4678Z" fill="#5D5D5D"/>
<path d="M21.6531 38.7292C21.5601 38.8222 21.467 38.9152 21.374 39.0083C21.374 38.9152 21.467 38.8222 21.467 38.6361C21.467 38.7292 21.5601 38.7292 21.6531 38.7292Z" fill="#FAFAFA"/>
<path d="M37.627 11.2381C37.627 11.145 37.627 11.1451 37.627 11.1451C37.627 11.1451 37.6269 11.1451 37.72 11.1451C37.6269 11.1451 37.627 11.2381 37.627 11.2381Z" fill="#101010"/>
<path d="M25.0889 17.925L25.1819 18.018H25.0889C25.0889 17.925 25.0889 17.925 25.0889 17.925Z" fill="#FAFAFA"/>
<path d="M21.4678 38.7292L21.5608 38.6361L21.6539 38.7292C21.5609 38.7292 21.4678 38.7292 21.4678 38.7292Z" fill="#FAFAFA"/>
<path d="M65.2125 25.0764C65.4911 25.1692 65.677 25.2621 65.7698 25.2621C65.4912 25.4479 65.2126 25.6336 64.9339 25.8193C64.8411 25.8193 64.7481 25.7265 64.6553 25.7265C64.841 25.4479 65.0268 25.2621 65.2125 25.0764Z" fill="#FAFAFA"/>
<path d="M48.8662 53.5891C49.1448 53.3105 49.5164 52.9389 49.9808 53.2176C49.6093 53.3104 49.2377 53.4033 48.8662 53.5891Z" fill="#5D5D5D"/>
<path d="M44.5929 54.9822C44.7787 55.1679 44.8716 55.2608 44.8716 55.3536C44.8716 55.4465 44.7787 55.5394 44.6858 55.7252C44.5929 55.6323 44.5001 55.5394 44.4072 55.3536C44.5001 55.3536 44.5001 55.2608 44.5929 54.9822Z" fill="#FAFAFA"/>
<path d="M38.4625 55.3537C38.5555 55.3537 38.5555 55.4468 38.6485 55.4468C38.5555 55.5398 38.5555 55.5398 38.4625 55.6328C38.4625 55.6328 38.3694 55.5398 38.2764 55.5398C38.3694 55.4468 38.4625 55.3537 38.4625 55.3537Z" fill="#FAFAFA"/>
<path d="M44.778 27.584C44.8709 27.3053 44.8709 27.0267 44.9638 26.7481C44.9638 26.6552 45.1495 26.4694 45.2424 26.3765C46.3569 26.3765 47.2856 27.1195 47.4714 28.4198C47.5643 29.2557 47.3786 30.1844 47.2857 31.0203C47.2857 31.1132 46.4498 31.2061 45.9854 31.1132C45.3353 30.9275 44.5923 29.5343 44.6851 28.7913C44.778 28.4198 44.4994 27.9555 44.778 27.584Z" fill="#FAFAFA"/>
<path d="M38.091 28.3269C38.1838 28.3269 38.3696 28.4198 38.4625 28.5127C38.834 28.7913 39.2983 30.2773 39.1126 30.6488C39.0197 30.8346 38.7411 30.8345 38.5553 30.9274C38.1838 31.206 37.7194 31.4847 38.1838 32.0419C38.2767 32.1348 38.1838 32.3206 38.1838 32.5063C38.0909 32.4134 37.9052 32.4134 37.8123 32.3206C37.5337 32.2277 37.2551 31.9491 36.9765 32.0419C35.9549 32.2277 35.769 32.1348 35.4904 31.1132C35.3046 29.5343 36.3263 28.234 38.091 28.3269Z" fill="#FAFAFA"/>
<path d="M52.8579 34.4568C52.765 34.271 52.6722 34.0853 52.765 34.0853C52.8579 33.9924 53.0437 33.8995 53.2294 33.8995C53.3223 33.8995 53.4151 33.9924 53.508 34.0853C53.3222 34.1782 53.1365 34.271 52.8579 34.4568Z" fill="#5D5D5D"/>
<path d="M46.6348 11.4237C46.7278 11.4237 46.7279 11.4237 46.8209 11.5167C46.8209 11.5167 46.8209 11.5167 46.8209 11.6098C46.7279 11.5167 46.6348 11.4237 46.6348 11.4237Z" fill="#FAFAFA"/>
<path d="M60.5664 31.6705C60.7522 31.6705 60.938 31.6705 61.2166 31.6705C61.1237 31.8563 61.1237 31.9491 61.0308 32.1349C60.845 31.9491 60.6593 31.8563 60.5664 31.6705Z" fill="#FAFAFA"/>
</svg>
