<?xml version="1.0" encoding="utf-8"?>
<!-- Generator: Adobe Illustrator 24.1.3, SVG Export Plug-In . SVG Version: 6.00 Build 0)  -->
<svg version="1.1" id="Laag_1" xmlns="http://www.w3.org/2000/svg" xmlns:xlink="http://www.w3.org/1999/xlink" x="0px" y="0px"
	 viewBox="0 0 402 535" style="enable-background:new 0 0 402 535;" xml:space="preserve">
<style type="text/css">
	.st0{fill:none;stroke:#FD5444;}
</style>
<path class="st0" d="M40.2,111.5c3.1,4,3.1,10.5,0,14.5l-23.4,30.1c-3,3.8-7.8,3.9-10.8,0c-3-3.8-3-10,0-13.9l29.1-37.4L40.2,111.5z
	"/>
<path class="st0" d="M40.2,164.4c3.1,4,3.1,10.5,0,14.5L16.8,209c-3,3.8-7.8,3.8-10.8,0c-3-3.8-3-10,0-13.9l29.1-37.4L40.2,164.4z"
	/>
<path class="st0" d="M40.2,271.2c3.1,4,3.1,10.5,0,14.5l-23.4,30.1c-3,3.8-7.8,3.9-10.8,0s-3-10,0-13.9l29.1-37.4L40.2,271.2z"/>
<path class="st0" d="M91.7,226.9c3.1,4,3.1,10.5,0,14.5l-23.4,30.1c-3,3.8-7.8,3.9-10.8,0c-3-3.8-3-10,0-13.9l29.1-37.4L91.7,226.9z
	"/>
<path class="st0" d="M91.7,7.4c3.1,4,3.1,10.5,0,14.5L68.2,52c-3,3.8-7.8,3.8-10.8,0c-3-3.8-3-10,0-13.9L86.5,0.8L91.7,7.4z"/>
<path class="st0" d="M91.7,59.2c3.1,4,3.1,10.5,0,14.5l-23.4,30.1c-3,3.8-7.8,3.9-10.8,0c-3-3.8-3-10,0-13.9l29.1-37.4L91.7,59.2z"
	/>
<path class="st0" d="M91.7,112.1c3.1,4,3.1,10.5,0,14.5l-23.4,30.1c-3,3.8-7.8,3.8-10.8,0c-3-3.8-3-10,0-13.9l29.1-37.4L91.7,112.1z
	"/>
<path class="st0" d="M91.7,271.8c3.1,4,3.1,10.5,0,14.5l-23.4,30.1c-3,3.8-7.8,3.8-10.8,0c-3-3.8-3-10,0-13.9l29.1-37.4L91.7,271.8z
	"/>
<path class="st0" d="M91.7,323.7c3.1,4,3.1,10.5,0,14.5l-23.4,30.1c-3,3.8-7.8,3.8-10.8,0c-3-3.8-3-10,0-13.9l29.1-37.4L91.7,323.7z
	"/>
<path class="st0" d="M91.7,376.6c3.1,4,3.1,10.5,0,14.5l-23.4,30.1c-3,3.8-7.8,3.8-10.8,0c-3-3.8-3-10,0-13.9L86.5,370L91.7,376.6z"
	/>
<path class="st0" d="M143.1,226.9c3.1,4,3.1,10.5,0,14.5l-23.4,30.1c-3,3.8-7.8,3.9-10.8,0c-3-3.8-3-10,0-13.9l29.1-37.4
	L143.1,226.9z"/>
<path class="st0" d="M143.1,59.2c3.1,4,3.1,10.5,0,14.5l-23.4,30.1c-3,3.8-7.8,3.9-10.8,0c-3-3.8-3-10,0-13.9L138,52.6L143.1,59.2z"
	/>
<path class="st0" d="M143.1,112.1c3.1,4,3.1,10.5,0,14.5l-23.4,30.1c-3,3.8-7.8,3.8-10.8,0s-3-10,0-13.9l29.1-37.4L143.1,112.1z"/>
<path class="st0" d="M143.1,165c3.1,4,3.1,10.5,0,14.5l-23.4,30.1c-3,3.8-7.8,3.8-10.8,0c-3-3.8-3-10,0-13.9l29.1-37.4L143.1,165z"
	/>
<path class="st0" d="M143.1,323.7c3.1,4,3.1,10.5,0,14.5l-23.4,30.1c-3,3.8-7.8,3.8-10.8,0c-3-3.8-3-10,0-13.9l29.1-37.4
	L143.1,323.7z"/>
<path class="st0" d="M143.1,429.5c3.1,4,3.1,10.5,0,14.5l-23.4,30.1c-3,3.8-7.8,3.8-10.8,0c-3-3.8-3-10,0-13.9l29.1-37.4
	L143.1,429.5z"/>
<path class="st0" d="M194.5,226.9c3.1,4,3.1,10.5,0,14.5l-23.4,30.1c-3,3.8-7.8,3.9-10.8,0c-3-3.8-3-10,0-13.9l29.1-37.4
	L194.5,226.9z"/>
<path class="st0" d="M194.5,59.2c3.1,4,3.1,10.5,0,14.5l-23.4,30.1c-3,3.8-7.8,3.9-10.8,0c-3-3.8-3-10,0-13.9l29.1-37.4L194.5,59.2z
	"/>
<path class="st0" d="M194.5,112.1c3.1,4,3.1,10.5,0,14.5l-23.4,30.1c-3,3.8-7.8,3.8-10.8,0c-3-3.8-3-10,0-13.9l29.1-37.4
	L194.5,112.1z"/>
<path class="st0" d="M194.5,271.8c3.1,4,3.1,10.5,0,14.5l-23.4,30.1c-3,3.8-7.8,3.8-10.8,0c-3-3.8-3-10,0-13.9l29.1-37.4
	L194.5,271.8z"/>
<path class="st0" d="M194.5,323.7c3.1,4,3.1,10.5,0,14.5l-23.4,30.1c-3,3.8-7.8,3.8-10.8,0c-3-3.8-3-10,0-13.9l29.1-37.4
	L194.5,323.7z"/>
<path class="st0" d="M194.5,376.6c3.1,4,3.1,10.5,0,14.5l-23.4,30.1c-3,3.8-7.8,3.8-10.8,0c-3-3.8-3-10,0-13.9l29.1-37.4
	L194.5,376.6z"/>
<path class="st0" d="M240.8,226.9c3.1,4,3.1,10.5,0,14.5l-23.4,30.1c-3,3.8-7.8,3.9-10.8,0c-3-3.8-3-10,0-13.9l29.1-37.4
	L240.8,226.9z"/>
<path class="st0" d="M240.8,112.1c3.1,4,3.1,10.5,0,14.5l-23.4,30.1c-3,3.8-7.8,3.8-10.8,0c-3-3.8-3-10,0-13.9l29.1-37.4
	L240.8,112.1z"/>
<path class="st0" d="M240.8,165c3.1,4,3.1,10.5,0,14.5l-23.4,30.1c-3,3.8-7.8,3.8-10.8,0c-3-3.8-3-10,0-13.9l29.1-37.4L240.8,165z"
	/>
<path class="st0" d="M240.8,271.8c3.1,4,3.1,10.5,0,14.5l-23.4,30.1c-3,3.8-7.8,3.8-10.8,0c-3-3.8-3-10,0-13.9l29.1-37.4
	L240.8,271.8z"/>
<path class="st0" d="M240.8,323.7c3.1,4,3.1,10.5,0,14.5l-23.4,30.1c-3,3.8-7.8,3.8-10.8,0c-3-3.8-3-10,0-13.9l29.1-37.4
	L240.8,323.7z"/>
<path class="st0" d="M240.8,376.6c3.1,4,3.1,10.5,0,14.5l-23.4,30.1c-3,3.8-7.8,3.8-10.8,0c-3-3.8-3-10,0-13.9l29.1-37.4
	L240.8,376.6z"/>
<path class="st0" d="M240.8,429.5c3.1,4,3.1,10.5,0,14.5l-23.4,30.1c-3,3.8-7.8,3.8-10.8,0c-3-3.8-3-10,0-13.9l29.1-37.4
	L240.8,429.5z"/>
<path class="st0" d="M292.2,226.9c3.1,4,3.1,10.5,0,14.5l-23.4,30.1c-3,3.8-7.8,3.9-10.8,0c-3-3.8-3-10,0-13.9l29.1-37.4
	L292.2,226.9z"/>
<path class="st0" d="M292.2,112.1c3.1,4,3.1,10.5,0,14.5l-23.4,30.1c-3,3.8-7.8,3.8-10.8,0c-3-3.8-3-10,0-13.9l29.1-37.4
	L292.2,112.1z"/>
<path class="st0" d="M292.2,165c3.1,4,3.1,10.5,0,14.5l-23.4,30.1c-3,3.8-7.8,3.8-10.8,0c-3-3.8-3-10,0-13.9l29.1-37.4L292.2,165z"
	/>
<path class="st0" d="M292.2,271.8c3.1,4,3.1,10.5,0,14.5l-23.4,30.1c-3,3.8-7.8,3.8-10.8,0c-3-3.8-3-10,0-13.9l29.1-37.4
	L292.2,271.8z"/>
<path class="st0" d="M292.2,376.6c3.1,4,3.1,10.5,0,14.5l-23.4,30.1c-3,3.8-7.8,3.8-10.8,0c-3-3.8-3-10,0-13.9l29.1-37.4
	L292.2,376.6z"/>
<path class="st0" d="M343.7,59.2c3.1,4,3.1,10.5,0,14.5l-23.4,30.1c-3,3.8-7.8,3.9-10.8,0c-3-3.8-3-10,0-13.9l29.1-37.4L343.7,59.2z
	"/>
<path class="st0" d="M343.7,165c3.1,4,3.1,10.5,0,14.5l-23.4,30.1c-3,3.8-7.8,3.8-10.8,0c-3-3.8-3-10,0-13.9l29.1-37.4L343.7,165z"
	/>
<path class="st0" d="M343.7,482.3c3.1,4,3.1,10.5,0,14.5L320.2,527c-3,3.8-7.8,3.8-10.8,0c-3-3.8-3-10,0-13.9l29.1-37.4L343.7,482.3
	z"/>
<path class="st0" d="M343.7,271.8c3.1,4,3.1,10.5,0,14.5l-23.4,30.1c-3,3.8-7.8,3.8-10.8,0c-3-3.8-3-10,0-13.9l29.1-37.4
	L343.7,271.8z"/>
<path class="st0" d="M343.7,376.6c3.1,4,3.1,10.5,0,14.5l-23.4,30.1c-3,3.8-7.8,3.8-10.8,0c-3-3.8-3-10,0-13.9l29.1-37.4
	L343.7,376.6z"/>
<path class="st0" d="M395.1,226.9c3.1,4,3.1,10.5,0,14.5l-23.4,30.1c-3,3.8-7.8,3.9-10.8,0c-3-3.8-3-10,0-13.9l29.1-37.4
	L395.1,226.9z"/>
<path class="st0" d="M395.1,164.4c3.1,4,3.1,10.5,0,14.5L371.6,209c-3,3.8-7.8,3.8-10.8,0c-3-3.8-3-10,0-13.9l29.1-37.4L395.1,164.4
	z"/>
<path class="st0" d="M395.1,376.6c3.1,4,3.1,10.5,0,14.5l-23.4,30.1c-3,3.8-7.8,3.8-10.8,0c-3-3.8-3-10,0-13.9L390,370L395.1,376.6z
	"/>
</svg>
